<svg width="49" height="220" viewBox="0 0 49 220" fill="none" xmlns="http://www.w3.org/2000/svg">
<g clip-path="url(#clip0_203_1853)">
<path d="M38.0485 32.508C38.0438 32.493 38.0384 32.4762 38.0338 32.4619C38.0343 32.4752 38.0403 32.4911 38.0485 32.508Z" fill="#849531" fill-opacity="0.5"/>
<path d="M25.5846 9.94897C25.5946 9.96536 25.6043 9.98086 25.6132 9.99366C25.6037 9.97843 25.594 9.96395 25.5846 9.94897Z" fill="#849531" fill-opacity="0.5"/>
<path d="M21.7107 26.3076C21.6085 26.8118 21.5964 27.682 21.5773 28.5057C21.6757 27.8718 21.7196 27.1977 21.7107 26.3076Z" fill="#849531" fill-opacity="0.5"/>
<path d="M21.575 28.5215C21.5755 28.5246 21.5759 28.531 21.5763 28.5347C21.5764 28.5229 21.577 28.5146 21.5772 28.5049C21.5763 28.5114 21.576 28.5165 21.575 28.5215Z" fill="#849531" fill-opacity="0.5"/>
<path d="M21.2024 113.223C21.201 113.242 21.2 113.262 21.1999 113.278C21.2009 113.259 21.2014 113.241 21.2024 113.223Z" fill="#849531" fill-opacity="0.5"/>
<path d="M21.6022 140.084C21.6022 140.068 21.6022 140.05 21.6022 140.034C21.5987 140.047 21.5996 140.065 21.6022 140.084Z" fill="#849531" fill-opacity="0.5"/>
<path d="M0.224487 184.132C0.331488 184.244 0.453517 184.372 0.577151 184.501C0.463075 184.374 0.34477 184.246 0.224487 184.132Z" fill="#849531" fill-opacity="0.5"/>
<path d="M0.622837 184.393C0.352356 184.096 0.0848502 183.8 0.0164565 183.696C0.0432662 183.813 0.557418 184.411 0.867992 184.693L1.01955 184.651C1.71208 185.325 1.11464 184.871 1.75962 185.556C1.71208 185.666 1.10272 185.051 0.576652 184.501C1.03432 185.014 1.44161 185.565 1.71805 185.69C2.11191 186.204 1.56796 185.73 2.04798 186.343C2.43738 186.734 3.01098 187.197 3.37357 187.723L3.35124 187.728C3.80605 188.353 4.22214 188.774 4.62631 189.184C5.03048 189.593 5.40945 190.003 5.81225 190.586L5.68738 190.492C5.8197 190.706 6.05742 190.988 6.32641 191.311C6.58945 191.638 6.88078 192.008 7.1304 192.382C6.99076 192.167 6.91789 191.94 7.26111 192.359C7.54798 192.79 7.82144 193.128 8.05766 193.452C8.29401 193.775 8.5095 194.071 8.69967 194.399L9.22127 194.916C9.49324 195.276 9.84094 195.784 10.2749 196.384C10.4889 196.687 10.7281 197.01 10.9719 197.362C11.2142 197.714 11.4698 198.089 11.7388 198.48C12.2857 199.255 12.8414 200.125 13.4344 201.021C13.7331 201.467 14.014 201.936 14.3112 202.402C14.6025 202.873 14.9101 203.338 15.191 203.819C15.4779 204.298 15.7646 204.778 16.0485 205.252C16.3354 205.723 16.5969 206.206 16.8659 206.671C17.1289 207.139 17.3994 207.591 17.6386 208.044C17.8824 208.493 18.1186 208.93 18.3446 209.348C18.4575 209.557 18.5675 209.762 18.676 209.961C18.7785 210.163 18.8796 210.36 18.9776 210.55C19.1782 210.942 19.3655 211.311 19.5394 211.649C19.6227 211.813 19.7029 211.972 19.7816 212.129C19.856 212.284 19.9287 212.434 20.0001 212.583C20.1397 212.883 20.2721 213.168 20.3969 213.439C20.6466 213.977 20.865 214.452 21.0509 214.854L20.9245 214.62C21.354 215.552 21.8385 216.576 22.3467 217.705L22.5577 218.17C23.1253 219.429 24.9132 219.423 25.4734 218.163L25.8285 217.365C26.4646 215.964 27.1245 214.515 27.7947 213.039C27.9626 212.667 28.1291 212.309 28.3088 211.944C28.4322 211.696 28.5555 211.446 28.6803 211.196C28.8677 210.817 29.0563 210.437 29.245 210.056C29.6299 209.297 30.0311 208.543 30.419 207.793C32.0032 204.807 33.6662 202.03 34.8773 200.059C35.1672 199.719 35.4599 199.283 35.7705 198.852C36.0766 198.42 36.3783 197.979 36.6503 197.606C36.3248 198.004 36.359 197.815 36.5879 197.485C36.9802 196.904 37.1971 196.611 37.3013 196.448C37.4083 196.286 37.4127 196.259 37.4172 196.231C37.4261 196.173 37.4306 196.109 38.2346 194.935C38.5838 194.437 39.1247 193.683 39.7995 192.78C40.1444 192.336 40.5203 191.851 40.9156 191.34C41.0151 191.212 41.1162 191.083 41.2187 190.952C41.3227 190.823 41.4297 190.693 41.5367 190.561C41.7507 190.3 41.9707 190.032 42.1921 189.762C42.4151 189.491 42.638 189.215 42.8698 188.94C43.1031 188.669 43.3394 188.396 43.5757 188.121L43.9308 187.709C44.1359 187.471 44.3544 187.21 44.5714 186.972C45.0024 186.486 45.463 186 45.9044 185.517C46.7975 184.554 47.6744 183.587 48.5364 182.679L48.5616 182.652C49.5097 181.646 48.8216 179.993 47.4395 179.958C46.0396 179.922 44.9057 179.892 44.1434 179.872C43.3929 179.903 42.6305 179.915 41.8548 179.916C41.4683 179.915 41.0761 179.913 40.6822 179.913C40.4236 179.91 40.1621 179.909 39.9019 179.906C39.0118 179.895 38.1245 179.879 37.3443 179.919L37.5018 179.883C36.081 179.915 29.0539 179.717 25.7582 179.675C25.7172 178.836 25.6656 178.047 25.7275 177.024L25.7625 177.226C25.8258 176.564 25.7467 175.26 25.8155 174.065C25.7932 174.406 25.7153 174.702 25.7047 173.983C25.7754 172.61 25.711 171.672 25.7965 170.668L25.695 169.704C25.7283 164.92 25.6314 146.025 25.6278 141.219L25.644 141.408C25.6117 134.086 25.6606 119.056 25.5376 111.489C25.6432 110.319 25.6235 108.704 25.6555 107.484C25.611 108.162 25.5388 107.93 25.5444 107.4C25.5663 103.679 25.4741 107.148 25.4405 103.386C25.3568 99.0532 25.5104 82.4736 25.6082 78.628C25.4935 77.0007 25.5442 75.0563 25.5269 73.3145C25.8422 73.1388 26.0854 72.9659 26.2085 72.8262C26.9959 72.3828 26.1919 72.9907 27.1389 72.4474C27.4527 72.2174 27.8022 71.9325 28.171 71.6522C28.3572 71.5146 28.5404 71.367 28.7253 71.2252C28.9107 71.0843 29.0982 70.95 29.2859 70.8286L29.2846 70.8529C29.5103 70.702 29.7187 70.5543 29.9066 70.4004C30.0969 70.2494 30.2748 70.1026 30.4439 69.9589C30.7862 69.6764 31.0771 69.3877 31.3643 69.1049C31.6518 68.8223 31.9379 68.5482 32.2301 68.2469C32.3783 68.0987 32.5326 67.9485 32.6967 67.795C32.8617 67.6423 33.0354 67.4851 33.214 67.3141L33.0916 67.4926C33.3553 67.2616 33.7142 66.8853 34.1151 66.4529C34.3103 66.2319 34.5171 65.9977 34.7274 65.7596C34.8346 65.6424 34.9426 65.5242 35.0506 65.4062C35.1569 65.2866 35.2629 65.1672 35.3678 65.0492C35.1226 65.3143 34.8663 65.5055 35.3366 64.9119C35.5779 64.6417 35.7991 64.3914 35.9959 64.148C36.1864 63.8996 36.3644 63.6674 36.535 63.4449C36.8818 63.0036 37.1653 62.5775 37.5055 62.1677C37.675 61.8724 37.8245 61.5649 37.9785 61.2616C38.6682 60.2095 39.7927 58.3208 40.837 55.8775C41.3535 54.6551 41.868 53.3026 42.282 51.856C42.7036 50.4125 43.0535 48.8859 43.2982 47.3391C43.538 45.7913 43.6646 44.2243 43.6893 42.7118C43.7102 41.9556 43.6786 41.2124 43.6529 40.4919C43.6264 40.132 43.6002 39.7774 43.5746 39.4292C43.5679 39.3422 43.5612 39.2556 43.5546 39.1694C43.5446 39.0834 43.5345 38.9979 43.5246 38.9127C43.5045 38.7424 43.4846 38.5739 43.465 38.4072C43.4451 38.2404 43.4255 38.0756 43.4062 37.9126C43.3869 37.7496 43.3557 37.5899 43.3315 37.4315C43.2795 37.1151 43.2289 36.8069 43.1797 36.5076C43.0563 35.9301 42.9403 35.3877 42.8333 34.887C42.7794 34.6369 42.7279 34.3973 42.6787 34.1691C42.6192 33.944 42.5624 33.7301 42.5091 33.5283C42.4012 33.125 42.3063 32.7697 42.226 32.4696L42.2917 32.6535C42.2299 32.425 42.1661 32.1889 42.1003 31.9457C42.035 31.7025 41.9481 31.4594 41.8698 31.2061C41.7082 30.7011 41.5381 30.1703 41.3611 29.6171C41.1677 29.071 40.9549 28.5079 40.7413 27.9241C40.5359 27.3363 40.2829 26.7501 40.0328 26.1452C39.0299 23.7273 37.7805 21.1569 36.3921 18.6758C33.6137 13.7099 30.37 9.07051 28.1329 6.04394C27.9843 5.79259 27.8133 5.52321 27.6294 5.24504C27.5799 5.17105 27.5299 5.09633 27.4794 5.02098C27.391 4.89362 27.3019 4.76527 27.2122 4.63617C27.0328 4.37735 26.8487 4.11705 26.6625 3.85762C25.9128 2.81193 25.1564 1.75694 24.5049 0.848191C25.2259 1.91162 24.9506 1.65678 24.399 0.891892C24.1549 0.555741 23.9403 0.260056 23.7515 0C23.5627 0.25087 23.3996 0.481736 23.2587 0.674515C22.9775 1.06641 22.7846 1.33552 22.6502 1.52284C22.3828 1.90195 22.3521 1.96201 22.3206 2.02643C22.262 2.15353 22.1793 2.30598 20.281 4.97295C19.9596 5.4357 19.5248 6.06195 19.0053 6.81009C18.5104 7.5283 17.9261 8.35588 17.3056 9.27705C16.9953 9.73746 16.6628 10.2093 16.3356 10.709C16.0059 11.2066 15.6668 11.7187 15.3213 12.2402C14.9779 12.7634 14.639 13.3052 14.291 13.8461C13.9403 14.3848 13.6027 14.9408 13.2649 15.4953C12.5778 16.5957 11.9369 17.7264 11.314 18.805C11.0147 19.3529 10.7219 19.8893 10.4384 20.4084C10.3674 20.5382 10.297 20.6669 10.2274 20.7945C10.1611 20.9244 10.0954 21.053 10.0304 21.1805C9.90053 21.4354 9.77329 21.6854 9.64903 21.9297C9.52453 22.174 9.40301 22.4126 9.28483 22.6447C9.22587 22.7609 9.16778 22.8755 9.11043 22.9884C9.05655 23.1034 9.00342 23.2166 8.95116 23.3279C8.74162 23.7735 8.54576 24.1899 8.36614 24.572C8.27602 24.7629 8.19 24.9453 8.10832 25.1182C8.03222 25.2942 7.96034 25.4608 7.89281 25.617C7.75726 25.9297 7.63947 26.2015 7.54191 26.4266C7.45924 26.6776 7.36961 26.9343 7.2749 27.1955C7.17684 27.4549 7.09677 27.7299 7.0007 28.0015C6.81512 28.5479 6.61315 29.1046 6.41541 29.6617C6.0666 30.7949 5.68117 31.911 5.48517 32.9372L5.50405 32.7253C5.43987 32.9974 5.33138 33.426 5.18987 33.9728C5.11229 34.2442 5.06015 34.555 4.98704 34.8864C4.91702 35.2188 4.8418 35.5765 4.76223 35.9543C4.44371 37.4696 4.18179 39.3656 4.08211 41.2701C3.97685 43.1778 4.03979 45.1043 4.20352 46.7062C4.36514 48.3086 4.60074 49.5878 4.75106 50.2299L4.69892 49.8789C4.84068 50.4368 4.93329 50.8372 4.99734 51.1529C5.07281 51.4661 5.11663 51.6953 5.15238 51.911C5.18987 52.1264 5.21246 52.3302 5.2636 52.5879C5.31661 52.8451 5.38773 53.1591 5.50379 53.5994C5.5275 53.5296 5.58584 53.5942 5.66355 53.741C5.7446 53.8866 5.85197 54.1121 5.96232 54.3686C6.07591 54.6239 6.18304 54.9135 6.29947 55.1757C6.41367 55.4386 6.51521 55.6819 6.58484 55.8558L6.54016 55.8426C6.5949 55.973 6.65846 56.124 6.72896 56.2919C6.80704 56.4565 6.89294 56.6376 6.98492 56.8313C7.07752 57.0245 7.17621 57.2303 7.27911 57.4451C7.38587 57.658 7.50529 57.876 7.62272 58.1008C7.7425 58.3245 7.85918 58.5558 7.98641 58.7835C8.11613 59.0098 8.24659 59.2375 8.37581 59.4629C8.62494 59.9183 8.90288 60.3457 9.13885 60.7466L9.02228 60.7308C9.23244 61.0586 9.5059 61.4474 9.78818 61.8723C9.85856 61.9785 9.93019 62.0868 10.0027 62.1962C10.0754 62.3054 10.1554 62.4115 10.2318 62.5209C10.3859 62.7387 10.5415 62.9588 10.6953 63.1762C10.8444 63.3967 11.0105 63.6009 11.1622 63.8035C11.3155 64.005 11.4631 64.1988 11.601 64.38C11.8836 64.7371 12.1401 65.0344 12.3192 65.2487C13.1335 66.2319 14.209 67.4588 15.493 68.631C16.7752 69.8024 18.2575 70.9177 19.7359 71.7763L20.1671 72.129C20.3104 72.2478 20.4619 72.3533 20.6095 72.4663L21.2681 72.9573C21.2466 73.6296 21.2215 74.2643 21.2781 74.55C21.2594 74.5359 21.2498 75.4206 21.176 75.3644C21.3037 75.6357 21.2034 76.2745 21.2346 76.8326C21.2697 77.0349 21.2734 76.6842 21.3125 76.5332L21.3545 77.8115C21.3118 78.3112 21.2359 78.4341 21.2234 77.8908C21.1683 81.2313 21.0018 97.2693 21.0562 100.868C21.1545 100.406 21.092 99.2949 21.2456 98.8731C21.3285 99.8247 21.212 100.274 21.3006 100.693C21.0727 101.058 21.2407 102.784 21.0089 103.504L21.1366 103.777L21.0567 104.25C21.1791 108.434 21.1194 105.206 21.079 108.915C21.0928 111.029 21.2626 112.051 21.2022 113.222C21.2157 113.022 21.2844 112.676 21.3128 113.182C21.1997 113.277 21.3897 114.663 21.275 114.934C21.2878 115.478 21.2685 117.243 21.4244 116.646C21.3465 116.946 21.3108 118.52 21.2464 117.582C21.2404 118.114 21.2163 118.628 21.2494 119.01L21.2942 118.329C21.3117 120.122 21.1896 121.1 21.3261 122.268L21.3892 121.606C21.3961 122.678 21.4053 123.575 21.2515 123.996L21.2075 122.895C21.2066 124.673 21.2137 125.746 21.2909 127.229L21.2965 126.699C21.4439 128.588 21.543 138.469 21.7294 140.209L21.85 139.408L21.9457 140.905C21.9475 140.744 21.6292 140.277 21.602 140.083C21.6047 143.402 21.6507 159.935 21.5632 162.882C21.4943 164.077 21.3745 163.097 21.3557 163.083C21.3961 164.537 21.4797 163.711 21.4662 164.947C21.444 165.285 21.3735 164.877 21.3571 164.687C21.3696 165.229 21.3272 165.731 21.3825 165.773C21.4274 165.096 21.5735 165.383 21.6698 165.096L21.6528 166.687L21.5602 166.616C21.5564 166.97 21.8115 167.516 21.7574 169.078C21.7101 171.714 21.7349 174.576 21.7062 177.227C21.6507 177.185 21.6193 176.629 21.5881 176.071C21.5843 176.426 21.597 176.968 21.5562 177.295C21.6562 176.655 21.6186 178.408 21.6615 177.907C21.7253 178.466 21.7523 179.073 21.763 179.694C21.4395 179.813 20.4547 179.892 20.0211 179.908L20.0419 179.868C19.2053 179.91 17.3104 180.094 15.9298 180.137L15.9833 180.038C14.8316 180.16 12.6648 180.146 11.8371 180.169C9.94235 180.154 7.02056 180.023 4.48977 180.188L2.61575 180.155C0.40287 180.119 -0.817208 182.712 0.622837 184.393ZM20.0244 53.7527C19.8892 53.661 19.7538 53.5663 19.6517 53.4931C19.5492 53.4202 19.4802 53.3687 19.4782 53.3625L19.3905 53.4593C19.1847 53.3173 19.4163 53.2962 19.2085 53.1896C19.029 53.2878 18.905 52.9533 18.7836 52.9874C18.7934 52.9764 18.7039 52.9069 18.7428 52.864C18.6574 52.9256 18.6342 52.816 18.5612 52.7959C18.5242 52.8038 18.5597 52.8313 18.5583 52.8671L18.404 52.8024C18.3698 52.7397 18.3904 52.6826 18.4537 52.7133C18.1243 52.4388 16.4888 51.1934 16.0774 50.9787C16.0841 51.0741 16.2303 51.112 16.2084 51.2401C16.0703 51.2265 16.0732 51.1203 15.9895 51.1477C16.0499 50.9759 15.7919 50.9626 15.8156 50.7634L15.7307 50.8264L15.7148 50.7418C15.2133 50.5272 15.5856 50.7144 15.2052 50.4295C14.9684 50.289 14.7829 50.3311 14.6844 50.2036C14.7027 50.2171 14.7189 50.3015 14.6457 50.283C14.6844 50.2036 14.4535 50.2296 14.4739 50.1369C14.4098 50.1073 14.2287 49.9721 14.2256 50.1142C14.227 50.0432 14.0734 49.9106 14.2018 49.9343C14.1474 49.8935 14.1021 49.8426 14.0468 49.8375L14.1009 49.9135C13.9002 49.801 13.8473 49.6548 13.6628 49.6622L13.7071 49.7488C13.5887 49.6793 13.4883 49.6233 13.5088 49.4948L13.6463 49.5423C13.455 49.4191 13.3364 49.3496 13.1437 49.2973L13.1983 49.3374C12.9318 49.3023 11.8227 48.6907 11.5551 48.6948L11.5907 48.8275L11.3882 48.7882C11.4066 48.8015 11.6284 48.5884 11.6279 48.6238C11.2805 48.406 9.45142 47.3111 9.16269 47.0602C9.06103 46.9355 9.21767 46.9223 9.22698 46.9109C9.05158 46.8403 9.10708 46.9502 8.97786 46.859C8.9503 46.8219 9.02391 46.8029 9.05147 46.8047C8.98717 46.7768 8.94992 46.7155 8.92249 46.749C8.97785 46.8235 8.88587 46.9002 8.87718 46.9824L8.71097 46.8653L8.75702 46.8093C8.73865 46.7964 8.68888 46.8219 8.62557 46.834C8.63463 46.6804 8.65498 46.5981 8.67186 46.5133C8.66553 46.5483 8.64592 46.4326 8.61625 46.2028C8.60222 46.0878 8.58473 45.9444 8.56425 45.7772C8.55456 45.6935 8.54426 45.6038 8.53322 45.5088C8.52614 45.4135 8.51869 45.3126 8.51087 45.2071C8.4807 44.7844 8.43863 44.2846 8.43081 43.7427C8.40487 43.2011 8.41914 42.6188 8.42323 42.0331C8.46358 40.8626 8.55779 39.6805 8.68589 38.789C8.69992 38.6773 8.71333 38.57 8.72624 38.4676C8.74313 38.3658 8.75913 38.2691 8.77428 38.1778C8.80469 37.9952 8.83138 37.8347 8.85372 37.7009C8.89829 37.4332 8.92621 37.272 8.9354 37.2535L8.79513 37.1085C8.9817 36.2131 9.05519 36.0927 9.12085 35.9887C9.15362 35.9367 9.1844 35.8885 9.22574 35.75C9.24647 35.6807 9.26981 35.5887 9.29749 35.4622C9.32417 35.3356 9.35508 35.1745 9.40759 34.9696C9.3809 34.6658 9.51919 34.1077 9.68453 33.5276C10.3377 33.9157 11.0855 34.3524 11.3515 34.5217L11.327 34.5211C12.0223 34.9311 13.3938 35.8564 14.1439 36.2356C14.2058 36.3739 14.3634 36.4582 14.462 36.5522C14.4189 36.4827 14.4719 36.4505 14.5182 36.4862C14.851 36.7257 14.572 36.4564 14.9331 36.663C15.3706 36.8693 16.8231 37.982 17.1302 38.2815C17.3844 38.3155 17.5649 38.553 17.7899 38.6208L17.7557 38.6305C17.9779 38.7314 19.0196 39.606 19.2696 39.7347L19.249 39.6992C19.4884 39.7818 19.3869 39.8668 19.5187 40.0109C19.5751 39.8894 19.7876 39.9503 19.8578 39.9886L19.8386 40.0102C19.9487 40.0621 20.2358 40.1276 20.406 40.2299L20.3575 40.2836C20.5362 40.3179 20.7683 40.5261 20.8686 40.5896C21.0054 40.7133 21.1705 40.9115 21.3704 41.0701C21.3194 44.7349 21.2793 48.4002 21.281 52.1541C21.2422 52.3038 21.244 52.1253 21.2272 51.935C21.2439 52.8919 21.2481 53.7969 21.252 54.6808C21.2172 54.6562 21.1831 54.6312 21.1478 54.607C21.1496 54.5716 21.1676 54.5858 21.1951 54.5891C20.9704 54.4665 20.794 54.3251 20.5867 54.2175C20.553 54.1542 20.5644 54.1079 20.5661 54.0726C20.5649 54.1076 20.2949 53.9361 20.0244 53.7527ZM25.9596 72.9275C25.8675 73.0071 25.7237 73.1127 25.5423 73.2253C25.5373 73.2285 25.5318 73.2319 25.5268 73.2351C25.5263 73.189 25.5258 73.1429 25.5252 73.097C25.5273 73.096 25.5286 73.0955 25.5309 73.0945C25.5803 73.0712 25.6459 73.0395 25.7328 72.9902C25.8187 72.9392 25.927 72.8723 26.0651 72.7842C26.0938 72.7976 26.0524 72.8488 25.9596 72.9275ZM38.3361 50.7763C38.2092 51.1748 38.102 51.5464 37.9768 51.8727C37.8574 52.2006 37.7507 52.4931 37.6593 52.7443C37.5557 52.991 37.4693 53.197 37.4022 53.3569C36.9303 54.3712 37.1544 53.4718 37.141 53.4546C37.0288 53.7741 36.9605 53.9684 36.9152 54.0972C36.8726 54.2273 36.8586 54.2939 36.8454 54.3542C36.8176 54.4739 36.8 54.5709 36.5561 55.094C36.3958 55.3668 36.5062 54.9982 36.5575 54.8277C36.3592 55.292 36.1093 55.6906 36.1446 55.7509C36.4601 55.2023 36.4753 55.5065 36.6796 55.3057C36.4534 55.7498 36.245 56.2023 35.9973 56.6349L35.9465 56.5333C35.8667 56.6789 35.8231 56.8941 35.7065 57.2336C35.6517 57.4052 35.5625 57.599 35.4467 57.8328C35.3276 58.0647 35.1834 58.3382 34.9779 58.6439C34.3063 59.6898 33.5571 60.7472 32.762 61.772C31.9537 62.7864 31.091 63.7593 30.2075 64.6413C30.1951 64.5739 30.5336 64.1731 30.8726 63.7736C30.6394 64.0119 30.2974 64.3888 30.0567 64.5823C30.2975 64.3984 30.1353 64.6047 29.9382 64.8005C29.7444 64.9995 29.5337 65.2051 29.7177 65.0569C29.5728 65.2354 29.4169 65.4154 29.2531 65.596C29.086 65.7731 28.9044 65.9436 28.7213 66.1176C28.5362 66.2894 28.3511 66.4665 28.155 66.6322C27.9562 66.7947 27.7567 66.9577 27.5584 67.1196C26.8474 67.6945 26.1222 68.2112 25.5282 68.6832C25.5464 65.618 25.5912 61.3399 25.6073 58.3261C25.7414 58.2582 25.8138 58.168 25.9419 58.1436L26.0012 58.001C26.5385 57.6302 28.5747 56.0418 29.1093 55.6605L29.0957 55.6858C29.8912 55.0786 31.5866 53.9216 32.3839 53.255C32.5609 53.2315 32.7332 53.0927 32.8839 53.018C32.7886 53.0423 32.7835 52.9777 32.8453 52.9399C33.2731 52.6651 32.8431 52.8751 33.2521 52.5617C33.7014 52.168 35.6429 50.9947 36.1219 50.7681C36.2944 50.5152 36.6395 50.4 36.8322 50.1881L36.8237 50.2264C37.0486 50.0266 38.526 49.2164 38.7963 48.998L38.748 49.0085C38.7849 48.9708 38.816 48.9439 38.8441 48.9238C38.7979 49.1146 38.7507 49.3025 38.7019 49.4849C38.5773 49.943 38.469 50.3793 38.3361 50.7763ZM39.6412 43.0703C39.6203 43.6215 39.5831 44.1718 39.5328 44.7155C38.7947 45.1038 38.0664 45.4722 37.3586 45.9343C37.3252 45.9201 37.3467 45.9079 37.362 45.8826C37.1456 46.0551 36.9317 46.1742 36.7377 46.3359C36.6618 46.346 36.6221 46.3187 36.5889 46.3045C36.6223 46.3187 36.3389 46.5175 36.0438 46.7126C35.8952 46.8086 35.745 46.9057 35.6307 46.9795C35.5157 47.0524 35.4359 47.1006 35.4291 47.1003L35.4843 47.219C35.2576 47.3668 35.338 47.1366 35.1446 47.2988C35.1614 47.5061 34.7844 47.5074 34.7644 47.6362C34.7582 47.6229 34.652 47.6843 34.6273 47.632C34.6498 47.736 34.5336 47.7192 34.4827 47.7829C34.4743 47.8214 34.5161 47.7967 34.55 47.8106L34.4207 47.9366C34.3452 47.9474 34.299 47.9074 34.3562 47.8574C33.9479 48.0775 32.0352 49.2139 31.6504 49.536C31.7454 49.5631 31.8454 49.4355 31.9595 49.5016C31.8865 49.6299 31.7852 49.5899 31.7754 49.68C31.6359 49.5616 31.5112 49.8054 31.3292 49.7124L31.353 49.8163L31.2646 49.8019C30.8401 50.2098 31.1819 49.9165 30.7426 50.184C30.5046 50.363 30.4647 50.5566 30.2991 50.6068C30.3201 50.5939 30.4086 50.6079 30.359 50.6719C30.2991 50.6068 30.2243 50.8385 30.1436 50.7863C30.0872 50.8375 29.8783 50.9648 30.0141 51.0176C29.9461 50.9911 29.7525 51.094 29.8304 50.9778C29.7677 51.0163 29.699 51.0418 29.67 51.0936L29.7667 51.068C29.5715 51.2223 29.4074 51.2221 29.3349 51.4027L29.4374 51.3903C29.3191 51.4801 29.2217 51.5575 29.1067 51.4927L29.2121 51.3768C29.0104 51.518 28.8921 51.6082 28.7583 51.7758L28.8206 51.7372C28.6721 51.9833 27.602 52.8384 27.491 53.0996L27.6344 53.1116L27.5092 53.2935C27.5298 53.2804 27.4203 52.9915 27.4543 53.0044C27.205 53.1835 26.2459 53.9017 25.5569 54.391C25.5594 53.3329 25.6708 53.2279 25.7151 51.8612C25.5449 52.0889 25.4537 50.201 25.4429 49.481L25.4799 49.5084C25.4543 48.4228 25.3137 45.9632 25.2957 44.1703L25.3882 44.2407C25.3334 43.3824 25.3262 42.091 25.3287 40.943C25.3408 40.9377 25.353 40.9323 25.366 40.9285C25.3541 40.9314 25.3407 40.931 25.3287 40.9281C25.3287 40.9023 25.3288 40.8765 25.3288 40.8509C25.4871 40.7965 25.5473 40.6915 25.68 40.6738L25.7254 40.5411C26.1944 40.2193 27.9563 38.82 28.4195 38.4844L28.4086 38.5078C29.097 37.9726 30.5697 36.9592 31.2527 36.3625C31.4125 36.3497 31.5607 36.226 31.6931 36.1626C31.6077 36.1807 31.5989 36.1184 31.6529 36.0855C32.0247 35.845 31.6467 36.0232 31.9989 35.7444C32.383 35.3915 34.0728 34.3667 34.493 34.1732C34.6333 33.9392 34.9393 33.8458 35.1003 33.6518L35.0951 33.6882C35.2866 33.5079 36.5746 32.8024 36.8051 32.6053L36.762 32.6129C36.9435 32.4104 36.9827 32.5375 37.1782 32.4599C37.0844 32.3638 37.2335 32.1797 37.3004 32.1251L37.3132 32.1511C37.4102 32.0629 37.5951 31.808 37.7665 31.6794L37.798 31.7447C37.8122 31.7238 37.8298 31.7032 37.8495 31.6827C37.851 31.6868 37.8526 31.6912 37.8543 31.6953C38.0011 32.0886 38.1218 32.3955 38.207 32.5865L38.0905 31.8219L38.3531 32.4901L38.4848 32.8246C38.5259 32.9368 38.5621 33.0504 38.6009 33.1632C38.5779 33.0815 38.4486 32.9393 38.3085 32.8042C38.1944 32.6928 38.0855 32.5842 38.0485 32.5083C38.0741 32.5882 38.1017 32.6747 38.1324 32.771C38.1506 32.828 38.1696 32.8878 38.1894 32.9502C38.2063 33.0134 38.2238 33.0793 38.242 33.1478C38.3153 33.4219 38.3998 33.7381 38.494 34.0902C38.5413 34.2664 38.591 34.4515 38.6429 34.6449C38.6924 34.8386 38.7555 35.0387 38.7953 35.2509C38.8855 35.6733 38.9821 36.126 39.0839 36.6028C39.1317 36.8404 39.1946 37.0875 39.2338 37.3334C39.2738 37.5795 39.3145 37.8307 39.356 38.0863C39.403 38.341 39.429 38.6039 39.4601 38.8697C39.4882 39.1358 39.529 39.4043 39.5485 39.6783C39.6445 40.7727 39.6717 41.922 39.6412 43.0703ZM11.1935 28.7384C11.4128 28.3143 11.5271 28.2351 11.3442 28.7164C11.4991 28.3521 11.7275 27.8148 12.0113 27.1473C12.0465 27.0639 12.0826 26.9783 12.1196 26.8909C12.1601 26.8045 12.2014 26.7162 12.2436 26.6261C12.3279 26.4459 12.4158 26.2582 12.5067 26.0638C12.6884 25.675 12.8825 25.2594 13.0868 24.8222C13.951 23.0899 15.0377 21.0344 16.2404 19.0179C18.6371 14.9812 21.3854 11.0642 22.3739 9.61012C22.037 9.92491 21.4621 10.8475 21.1097 11.1028C21.5619 10.2883 21.9167 9.99828 22.0757 9.61023C22.2716 9.52956 22.5736 9.11867 22.9058 8.67441C23.0731 8.45271 23.2469 8.22232 23.4161 8.01987C23.5007 7.9187 23.5841 7.82436 23.6652 7.74182L23.6955 7.71139C23.7062 7.70061 23.7022 7.71028 23.7063 7.70892L23.7201 7.71736C23.7296 7.72369 23.7397 7.73151 23.7506 7.74094C23.7184 7.71226 23.689 7.67987 23.6621 7.64363C23.6848 7.65691 23.7048 7.67416 23.7218 7.69539C23.7153 7.64709 23.7294 7.59261 23.7362 7.56282C23.7441 7.53154 23.7481 7.52098 23.7506 7.5211C23.7547 7.53252 23.7635 7.58775 23.7929 7.65367C23.7994 7.65839 23.8073 7.66075 23.8171 7.66312L23.8335 7.66684L23.8428 7.66894L23.8477 7.67006L23.8501 7.67068L23.8736 7.70047C24.1258 8.02086 24.3525 8.29941 24.5602 8.55586C24.9619 9.054 25.2842 9.47258 25.5855 9.95024C25.4838 9.78316 25.3431 9.46388 25.6524 9.85303C25.6328 9.92329 25.857 10.2078 26.0934 10.51C26.3302 10.8122 26.5707 11.136 26.5991 11.2769C26.9108 11.707 27.8663 13.137 27.6676 12.5695C27.7649 12.8559 28.5812 14.151 28.0236 13.4272C28.3041 13.8607 28.5606 14.2905 28.7938 14.582L28.4647 14.0052C28.9601 14.7244 29.2896 15.3096 29.6029 15.8169C29.9148 16.325 30.1982 16.7608 30.5458 17.2098L30.2664 16.6287C30.8113 17.5119 31.271 18.2496 31.35 18.6754L30.7592 17.7887C30.9821 18.1559 31.1829 18.4866 31.3704 18.7952C31.5532 19.1054 31.723 19.3935 31.8883 19.674C32.2269 20.2298 32.547 20.7551 32.9187 21.3651L32.6821 20.9147C33.1775 21.6772 34.6014 24.1318 35.7759 26.6718C36.0598 27.3102 36.3432 27.9475 36.6139 28.5564C36.6463 28.6261 36.6766 28.696 36.7059 28.7659C36.2262 29.0189 35.7526 29.2759 35.2928 29.5843C35.2615 29.5689 35.2803 29.5582 35.2923 29.5346C35.1075 29.6902 34.9215 29.7945 34.7562 29.9404C34.6879 29.9462 34.6501 29.9181 34.6188 29.9028C34.6501 29.9181 34.406 30.0953 34.151 30.2685C34.0237 30.3551 33.8932 30.4403 33.7937 30.5046C33.6941 30.5688 33.6247 30.6111 33.6185 30.6105L33.6767 30.7274C33.4805 30.858 33.5382 30.6408 33.3732 30.7869C33.4023 30.9871 33.0597 30.9692 33.0501 31.092C33.0435 31.0788 32.9512 31.1327 32.9254 31.0809C32.9528 31.1822 32.8461 31.1601 32.804 31.2187C32.7989 31.2553 32.8353 31.2337 32.867 31.2487L32.7578 31.3632C32.6899 31.3697 32.6452 31.3289 32.694 31.2838C32.3375 31.4745 30.6722 32.4664 30.342 32.7537C30.4302 32.7849 30.513 32.6677 30.6213 32.7373C30.5632 32.8565 30.4683 32.8127 30.4653 32.8987C30.3304 32.7774 30.2328 33.0048 30.0609 32.9058L30.0895 33.0068L30.008 32.9882C29.6479 33.3569 29.9404 33.094 29.5573 33.3266C29.3519 33.4852 29.3283 33.6688 29.1806 33.7079C29.1988 33.6967 29.2804 33.715 29.2394 33.7737C29.1806 33.7079 29.1275 33.9261 29.0505 33.8715C29.0025 33.9177 28.8204 34.0282 28.9475 34.0864C28.8838 34.0572 28.7137 34.145 28.7774 34.038C28.7227 34.0714 28.6616 34.0921 28.6386 34.14L28.7253 34.1209C28.5571 34.2579 28.4075 34.2485 28.3529 34.4176L28.4456 34.4114C28.3434 34.4909 28.2595 34.5596 28.1505 34.4911L28.2392 34.3857C28.0643 34.5099 27.9622 34.5898 27.851 34.7429L27.9054 34.7094C27.7857 34.9367 26.8639 35.6958 26.7789 35.9389L26.9106 35.9587L26.8078 36.1256C26.8258 36.1143 26.7074 35.8313 26.7393 35.8456C26.5567 35.9788 25.9348 36.4505 25.3848 36.8518C25.4471 34.5845 25.5244 31.8119 25.4384 29.326L25.7086 27.2038L25.6832 26.893C25.6832 26.893 22.4989 23.4655 21.8069 27.8037L21.7146 27.7343L21.7242 28.5925C21.6757 29.6219 21.7819 30.0983 21.6895 30.0282L21.7047 28.6177C21.675 29.6519 21.628 28.9296 21.5766 28.5346C21.5665 28.9665 21.5542 29.3857 21.5248 29.7294C21.5598 29.9333 21.5636 29.5797 21.5841 29.4188C21.6153 29.9753 21.7002 30.7504 21.6556 31.4277C21.6441 32.487 21.5054 31.4949 21.492 32.7309C21.4719 34.2005 21.4499 35.6589 21.4281 37.1133C21.2824 37.0256 21.1546 36.932 21.0089 36.8596C20.982 36.8009 20.9953 36.7561 20.9991 36.7222C20.9913 36.7902 20.0541 36.1276 20.0474 36.1056L19.961 36.2033C19.7817 36.0791 19.9949 36.0455 19.8115 35.9553C19.6412 36.0597 19.5487 35.7465 19.4355 35.786C19.4452 35.7749 19.3678 35.7135 19.4059 35.6702C19.3238 35.7342 19.3096 35.6305 19.244 35.6153C19.2096 35.625 19.2404 35.6492 19.2369 35.6836L19.0999 35.6305C19.0726 35.5723 19.0951 35.5164 19.1509 35.5423C18.8669 35.2983 17.4512 34.1961 17.0898 34.0119C17.0898 34.1031 17.2209 34.1315 17.1927 34.2556C17.0676 34.2501 17.0769 34.1481 16.9988 34.179C17.0649 34.0109 16.8303 34.0123 16.8648 33.8198L16.7834 33.8847L16.7743 33.8045C16.3303 33.626 16.658 33.7854 16.329 33.5326C16.1221 33.4105 15.9502 33.4609 15.8685 33.3438C15.8843 33.3559 15.8937 33.4361 15.828 33.4222C15.8685 33.3438 15.6561 33.3813 15.6807 33.2911C15.6242 33.266 15.4677 33.1461 15.4556 33.2826C15.4615 33.2144 15.3299 33.0953 15.4455 33.1112C15.3984 33.075 15.3606 33.0284 15.3104 33.0264L15.3549 33.0966C15.1791 32.9993 15.1404 32.8615 14.9717 32.8785L15.0064 32.9593C14.9029 32.8987 14.815 32.8503 14.8421 32.7259L14.9643 32.7643C14.7979 32.656 14.6942 32.5956 14.5219 32.5555L14.5691 32.5911C14.3283 32.5716 13.3575 32.0414 13.1137 32.0589L13.1375 32.1848L12.9556 32.1575C12.9715 32.1693 13.1875 31.9529 13.1848 31.9871C12.8824 31.7959 11.2894 30.8353 11.044 30.607C10.9599 30.4919 11.1032 30.4714 11.1124 30.4601C10.9576 30.4008 11.0007 30.504 10.8892 30.4224C10.8666 30.388 10.9349 30.3662 10.9597 30.3667C10.9031 30.343 10.8733 30.2858 10.8462 30.3194C10.8915 30.3884 10.8028 30.4669 10.7894 30.5463L10.6823 30.4682C10.7752 30.2181 10.9028 29.9304 10.9853 29.6499C11.0171 29.458 10.9014 29.7682 10.8161 29.8894C10.9426 29.5062 11.0564 29.1192 11.1935 28.7384ZM20.9406 68.0422C20.6664 67.8745 20.3849 67.6908 20.1411 67.4942C19.366 66.9 20.1791 67.3373 19.2843 66.6396C16.9693 64.7477 14.9903 62.542 13.3817 60.0834C11.7795 57.6204 10.5355 54.9176 9.66256 52.0282C9.66083 51.8856 9.7055 52.043 9.77092 52.205C9.62792 51.7661 9.50107 51.3363 9.38662 50.912C9.56201 51.0164 9.70563 51.103 9.79798 51.1615L9.77105 51.1594C10.5682 51.6281 12.1479 52.6772 13.0006 53.1209C13.0788 53.2693 13.2585 53.3671 13.3738 53.4717C13.3215 53.3962 13.3773 53.3658 13.4309 53.4061C13.8144 53.6774 13.4879 53.3782 13.9002 53.6169C14.3971 53.8593 16.0738 55.1178 16.4324 55.4518C16.7142 55.5039 16.9292 55.7648 17.1812 55.8506L17.1442 55.8584C17.3956 55.9783 18.601 56.965 18.8843 57.1172L18.8592 57.0786C19.1276 57.1815 19.0223 57.2638 19.1771 57.4239C19.2302 57.3002 19.4676 57.3785 19.5474 57.4234L19.5278 57.4448C19.6522 57.5067 19.9717 57.5947 20.1652 57.714L20.1159 57.7671C20.3143 57.8154 20.5831 58.05 20.6976 58.1235C20.8284 58.2382 20.9842 58.408 21.1633 58.5656C21.2085 60.0595 21.1976 66.822 21.1817 68.1841C21.1692 68.1775 21.1573 68.1712 21.1446 68.1645C21.0777 68.1245 21.0095 68.0836 20.9406 68.0422ZM21.1808 68.2608C21.1807 68.272 21.1805 68.2828 21.1803 68.2928C21.1671 68.2785 21.1676 68.2683 21.1808 68.2608Z" fill="#849531" fill-opacity="0.5"/>
</g>
<defs>
<clipPath id="clip0_203_1853">
<rect width="49" height="220" fill="white"/>
</clipPath>
</defs>
</svg>
