<?xml version="1.0"?>
<svg width="367.12786259541986" height="347.26" xmlns="http://www.w3.org/2000/svg" xmlns:svg="http://www.w3.org/2000/svg">
 <defs>
  <clipPath id="clip0_194_2708">
   <rect fill="white" height="358" id="svg_1" width="375"/>
  </clipPath>
 </defs>
 <g class="layer">
  <title>Layer 1</title>
  <g clip-path="url(#clip0_194_2708)" id="svg_2">
   <path d="m192.25,14.37c0,0 -74.5,-21.21 -120.62,46.42c-46.12,67.63 -40.21,194.94 26.01,251.97c66.23,57.02 136.01,31.82 164.39,9.28c18.54,-14.73 40.21,-66.31 9.46,-118.03c-30.75,-51.72 -29.5,-80.8 -23.65,-106.09c8.28,-35.8 -8.28,-83.55 -55.59,-83.55z" fill="#C8E6D8" id="svg_8"/>
   <path d="m282.08,84.52c-10.16,7.17 -16.78,19.19 -18.48,32.51c-2.16,16.89 -1.52,44.24 16.97,70.7c29.72,42.52 85.07,2.3 74.82,-40.22c-8.89,-36.88 -40.9,-85.86 -73.31,-62.99z" fill="#C8E6D8" id="svg_9"/>
   <path d="m246.05,177.5c0,0 2.37,-31.17 30.16,-29.84c27.79,1.33 28.97,31.16 28.97,31.16c0,0 23.06,-11.27 37.26,13.93c0,0 26.61,-0.67 24.24,3.31c-2.37,3.98 -121.81,-0.66 -121.81,-0.66l1.18,-17.9z" fill="#F7D441" id="svg_10"/>
   <path d="m145.52,89.97c0,0 5.32,-21.88 26.02,-20.55c20.69,1.33 24.83,24.54 24.83,24.54c0,0 26.02,-8.63 30.75,18.56c0,0 36.07,3.32 34.3,7.29c-1.78,3.98 -209.33,0 -209.33,0c0,0 0,-3.97 11.24,-5.3c11.23,-1.33 23.65,-3.98 23.65,-3.98c0,0 5.11,-26.36 28.97,-31.16c23.07,-4.65 29.57,10.6 29.57,10.6z" fill="#F7D441" id="svg_11"/>
   <path d="m168.94,147.91c0,0 -24.44,-66.63 -24.44,-70.39c0,-3.77 12.46,-8.07 15.81,-5.38c3.36,2.69 63.26,63.41 61.35,63.95c-1.92,0.54 -52.72,11.82 -52.72,11.82z" fill="#3D5BA9" id="svg_12"/>
   <path d="m215.25,137.74c-0.29,0 -0.58,-0.12 -0.81,-0.36l-57.16,-60.12c-0.47,-0.5 -0.5,-1.34 -0.05,-1.88c0.45,-0.53 1.2,-0.56 1.67,-0.06l57.16,60.12c0.48,0.5 0.5,1.34 0.06,1.88c-0.24,0.28 -0.55,0.42 -0.87,0.42z" fill="white" id="svg_13"/>
   <path d="m80.76,168.33l29.71,-29.02c0,0 2.4,-3.76 5.28,-1.61c2.87,2.15 -11.99,27.41 -11.99,27.41l-23,3.22z" fill="#3D5BA9" id="svg_14"/>
   <path d="m302.91,122.86c-19.65,-5.91 -38.34,-3.76 -38.34,-3.76l-158.85,43.39l-0.04,-0.07c0,0 -21.57,5.37 -37.38,-9.67c-11.16,-10.62 -24.22,-23.37 -30.95,-29.97c-2.9,-2.83 -6.68,-4.26 -10.52,-3.95l-15.39,1.21c-2.6,0.2 -4,3.51 -2.5,5.9l33.79,53.76l-33.64,9.18c-0.9,0.22 -1.46,1.25 -1.22,2.25l1.51,6.45c0.27,1.15 1.16,1.98 2.22,2.08l33.22,3.06c0,0 73.8,6.99 79.55,5.92c5.75,-1.08 146.43,-42.79 155.53,-46.55c9.11,-3.76 19.65,-10.21 26.36,-16.66c6.71,-6.44 16.3,-16.65 -3.35,-22.57z" fill="#F8E5C7" id="svg_15"/>
   <path d="m68.78,188.22l-50.32,44.6c0,0 -2.88,3.23 1.44,5.37c4.31,2.16 71.88,-46.75 71.88,-46.75c0,0 5.75,-5.37 -2.87,-5.91c0,0 -15.82,-1.61 -20.13,2.69z" fill="#3D5BA9" id="svg_16"/>
   <path d="m287.73,139.34l-5.09,-4.05c-0.48,-0.38 -1.13,-0.36 -1.6,0.05l-0.68,0.62c-0.45,0.4 -0.61,1.09 -0.41,1.69l2.07,6.17c0.32,0.94 1.29,1.39 2.09,0.95c1,-0.55 2.38,-1.52 3.81,-3.21c0.56,-0.65 0.46,-1.7 -0.19,-2.22z" fill="#3D5BA9" id="svg_17"/>
   <path d="m124.37,208.64c5.75,-1.08 146.43,-42.79 155.54,-46.55c9.1,-3.76 19.65,-10.21 26.36,-16.66c6.2,-5.96 14.86,-15.14 0.59,-21.16c0.35,1.37 0.33,3.62 -0.94,7.28c-2.76,7.95 -12.22,17.24 -27.59,22.98c-12.06,4.51 -126.78,38.61 -175.83,53.15c11.17,0.82 20.03,1.3 21.87,0.96z" fill="#DC3D73" id="svg_18"/>
   <path d="m144.76,194.38l-77.42,85.79c0,0 -8.62,10.75 -7.19,11.82c1.44,1.08 35.46,-9.67 41.22,-12.89c5.07,-2.85 105.68,-88.84 129.06,-108.43c1.13,-0.95 0.3,-2.94 -1.08,-2.6l-76.12,21.14c-3.2,0.79 -6.13,2.59 -8.47,5.17z" fill="#3D5BA9" id="svg_19"/>
   <path d="m65.54,150.12c-3.9,-3.73 -7.94,-7.62 -11.8,-11.36c-14.05,4.09 -27.4,3.44 -35.22,2.44l16.29,25.9c15.51,-2.78 25.38,-10.97 30.73,-16.98z" fill="#DC3D73" id="svg_20"/>
   <path d="m50.82,135.92c-0.61,-0.58 -1.21,-1.17 -1.8,-1.74c-11.19,1.57 -23.71,2.03 -35.21,-0.48l1.46,2.32c5.33,1.01 10.85,1.44 16.32,1.44c6.59,0 13.13,-0.62 19.23,-1.54z" fill="#3D5BA9" id="svg_21"/>
   <path d="m70.18,284.94c-0.54,0 -1.03,-0.42 -1.15,-1.04c-0.14,-0.72 0.26,-1.43 0.9,-1.58c18.84,-4.65 35.37,-15.99 36.25,-16.6l111.13,-91.92c0.53,-0.43 1.26,-0.31 1.65,0.28c0.39,0.59 0.28,1.42 -0.25,1.86l-111.16,91.94c-0.03,0.02 -0.05,0.04 -0.08,0.06c-0.17,0.12 -17.35,12.12 -37.03,16.97c-0.09,0.02 -0.17,0.03 -0.26,0.03z" fill="white" id="svg_22"/>
   <path d="m114.57,193l-1.04,0.3c-1.22,0.35 -2.45,-0.48 -2.76,-1.84l-0.26,-1.17c-0.31,-1.36 0.42,-2.74 1.64,-3.09l1.04,-0.3c1.21,-0.34 2.45,0.48 2.76,1.85l0.26,1.16c0.31,1.36 -0.43,2.75 -1.64,3.09z" fill="#3D5BA9" id="svg_23"/>
   <path d="m121.92,190.91l-1.04,0.3c-1.21,0.35 -2.45,-0.48 -2.76,-1.84l-0.26,-1.17c-0.31,-1.36 0.42,-2.74 1.64,-3.09l1.04,-0.3c1.21,-0.34 2.45,0.48 2.76,1.84l0.26,1.17c0.31,1.36 -0.43,2.75 -1.64,3.09z" fill="#3D5BA9" id="svg_24"/>
   <path d="m129.27,188.82l-1.04,0.3c-1.21,0.34 -2.45,-0.48 -2.76,-1.85l-0.26,-1.16c-0.31,-1.36 0.43,-2.75 1.64,-3.1l1.04,-0.29c1.21,-0.35 2.45,0.48 2.76,1.84l0.26,1.16c0.31,1.37 -0.42,2.75 -1.64,3.1z" fill="#3D5BA9" id="svg_25"/>
   <path d="m136.62,186.72l-1.04,0.3c-1.21,0.35 -2.45,-0.48 -2.76,-1.84l-0.26,-1.17c-0.31,-1.36 0.42,-2.74 1.64,-3.09l1.04,-0.29c1.21,-0.35 2.45,0.47 2.76,1.84l0.26,1.16c0.31,1.37 -0.43,2.75 -1.64,3.09z" fill="#3D5BA9" id="svg_26"/>
   <path d="m143.97,184.63l-1.04,0.3c-1.21,0.35 -2.45,-0.48 -2.76,-1.84l-0.26,-1.17c-0.31,-1.36 0.43,-2.74 1.64,-3.09l1.04,-0.3c1.22,-0.34 2.45,0.48 2.76,1.85l0.26,1.16c0.31,1.36 -0.43,2.75 -1.64,3.09z" fill="#3D5BA9" id="svg_27"/>
   <path d="m151.32,182.54l-1.04,0.3c-1.21,0.34 -2.45,-0.48 -2.76,-1.84l-0.26,-1.17c-0.31,-1.36 0.42,-2.75 1.64,-3.09l1.04,-0.3c1.21,-0.35 2.45,0.48 2.76,1.84l0.26,1.17c0.31,1.36 -0.43,2.74 -1.64,3.09z" fill="#3D5BA9" id="svg_28"/>
   <path d="m158.67,180.45l-1.04,0.3c-1.21,0.34 -2.45,-0.48 -2.75,-1.85l-0.27,-1.16c-0.31,-1.36 0.43,-2.75 1.64,-3.1l1.04,-0.29c1.22,-0.35 2.45,0.48 2.76,1.84l0.26,1.16c0.31,1.37 -0.43,2.75 -1.64,3.1z" fill="#3D5BA9" id="svg_29"/>
   <path d="m166.02,178.35l-1.04,0.3c-1.21,0.35 -2.45,-0.48 -2.76,-1.84l-0.26,-1.17c-0.31,-1.36 0.42,-2.74 1.64,-3.09l1.04,-0.3c1.21,-0.34 2.45,0.48 2.76,1.85l0.26,1.16c0.31,1.37 -0.42,2.75 -1.64,3.09z" fill="#3D5BA9" id="svg_30"/>
   <path d="m173.37,176.26l-1.04,0.3c-1.21,0.34 -2.45,-0.48 -2.76,-1.84l-0.26,-1.17c-0.31,-1.36 0.42,-2.75 1.64,-3.09l1.04,-0.3c1.21,-0.35 2.45,0.48 2.76,1.84l0.26,1.17c0.31,1.36 -0.42,2.75 -1.64,3.09z" fill="#3D5BA9" id="svg_31"/>
   <path d="m180.72,174.17l-1.04,0.3c-1.21,0.34 -2.45,-0.48 -2.76,-1.85l-0.26,-1.16c-0.31,-1.37 0.43,-2.75 1.64,-3.09l1.04,-0.3c1.21,-0.35 2.45,0.48 2.76,1.84l0.26,1.17c0.31,1.36 -0.42,2.74 -1.64,3.09z" fill="#3D5BA9" id="svg_32"/>
   <path d="m188.07,172.08l-1.04,0.29c-1.21,0.35 -2.45,-0.48 -2.76,-1.84l-0.26,-1.16c-0.31,-1.37 0.42,-2.75 1.64,-3.1l1.04,-0.29c1.21,-0.35 2.45,0.47 2.76,1.84l0.26,1.16c0.31,1.37 -0.42,2.75 -1.64,3.1z" fill="#3D5BA9" id="svg_33"/>
   <path d="m195.42,169.98l-1.04,0.3c-1.21,0.34 -2.45,-0.48 -2.76,-1.84l-0.26,-1.17c-0.31,-1.36 0.42,-2.75 1.64,-3.09l1.04,-0.3c1.21,-0.35 2.45,0.48 2.76,1.84l0.26,1.17c0.31,1.36 -0.43,2.75 -1.64,3.09z" fill="#3D5BA9" id="svg_34"/>
   <path d="m202.77,167.89l-1.03,0.3c-1.22,0.34 -2.46,-0.48 -2.77,-1.85l-0.26,-1.16c-0.31,-1.36 0.43,-2.75 1.64,-3.09l1.04,-0.3c1.22,-0.35 2.45,0.48 2.76,1.84l0.27,1.17c0.3,1.36 -0.43,2.74 -1.65,3.09z" fill="#3D5BA9" id="svg_35"/>
   <path d="m210.12,165.8l-1.04,0.29c-1.21,0.35 -2.45,-0.47 -2.76,-1.84l-0.26,-1.16c-0.31,-1.37 0.43,-2.75 1.64,-3.1l1.04,-0.29c1.21,-0.35 2.45,0.47 2.76,1.84l0.26,1.16c0.31,1.37 -0.42,2.75 -1.64,3.1z" fill="#3D5BA9" id="svg_36"/>
   <path d="m217.47,163.7l-1.03,0.3c-1.22,0.34 -2.45,-0.48 -2.76,-1.84l-0.27,-1.17c-0.31,-1.36 0.43,-2.74 1.65,-3.09l1.03,-0.3c1.22,-0.34 2.45,0.48 2.76,1.84l0.26,1.17c0.31,1.36 -0.42,2.75 -1.64,3.09z" fill="#3D5BA9" id="svg_37"/>
   <path d="m225.16,161.51l-1.03,0.3c-1.22,0.34 -2.45,-0.48 -2.76,-1.84l-0.27,-1.17c-0.31,-1.36 0.43,-2.75 1.65,-3.09l1.03,-0.3c1.22,-0.35 2.45,0.48 2.76,1.84l0.27,1.17c0.31,1.36 -0.43,2.75 -1.65,3.09z" fill="#3D5BA9" id="svg_38"/>
   <path d="m232.51,159.42l-1.03,0.3c-1.22,0.34 -2.45,-0.48 -2.76,-1.84l-0.27,-1.17c-0.31,-1.36 0.43,-2.75 1.64,-3.09l1.04,-0.3c1.22,-0.35 2.45,0.48 2.76,1.84l0.27,1.17c0.31,1.36 -0.43,2.74 -1.65,3.09z" fill="#3D5BA9" id="svg_39"/>
   <path d="m239.87,157.33l-1.04,0.29c-1.21,0.35 -2.45,-0.47 -2.76,-1.84l-0.26,-1.16c-0.31,-1.37 0.42,-2.75 1.64,-3.1l1.04,-0.29c1.21,-0.35 2.45,0.47 2.76,1.84l0.26,1.16c0.3,1.37 -0.43,2.75 -1.64,3.1z" fill="#3D5BA9" id="svg_40"/>
   <path d="m247.22,155.23l-1.04,0.3c-1.22,0.35 -2.45,-0.48 -2.76,-1.84l-0.26,-1.17c-0.32,-1.36 0.42,-2.74 1.64,-3.09l1.04,-0.3c1.21,-0.34 2.44,0.48 2.75,1.84l0.27,1.17c0.3,1.36 -0.43,2.75 -1.64,3.09z" fill="#3D5BA9" id="svg_41"/>
   <path d="m254.57,153.14l-1.04,0.3c-1.21,0.34 -2.45,-0.48 -2.76,-1.84l-0.26,-1.17c-0.31,-1.36 0.42,-2.75 1.64,-3.09l1.04,-0.3c1.21,-0.35 2.45,0.48 2.75,1.84l0.27,1.17c0.3,1.36 -0.43,2.74 -1.64,3.09z" fill="#3D5BA9" id="svg_42"/>
   <path d="m261.92,151.05l-1.04,0.29c-1.21,0.35 -2.45,-0.47 -2.76,-1.84l-0.26,-1.16c-0.31,-1.36 0.42,-2.75 1.64,-3.1l1.04,-0.29c1.21,-0.35 2.45,0.48 2.76,1.84l0.26,1.16c0.31,1.37 -0.43,2.75 -1.64,3.1z" fill="#3D5BA9" id="svg_43"/>
   <path d="m283.42,132.38c-0.72,0.43 -0.75,1.59 -0.04,2.06l6.13,4.03c0.77,0.51 1.73,0.46 2.45,-0.13c2.87,-2.33 9.73,-8.72 9.29,-15.95c-3.68,-1.03 -7.31,-1.79 -10.78,-2.33c0.14,2.41 -0.31,8.28 -7.05,12.32z" fill="#3D5BA9" id="svg_44"/>
   <path d="m178.54,234.83c0,0 6.5,-19.89 27.79,-20.55c21.29,-0.66 28.97,19.23 28.97,19.23c0,0 23.65,-7.96 29.57,16.58c0,0 30.74,1.32 28.97,5.96c-1.4,3.67 -102.19,4.44 -144.37,4.6c-2.2,0.01 -2.53,-3.55 -0.37,-4.04l11.11,-2.54c0,0 -2.37,-21.23 18.33,-19.24z" fill="#3D5BA9" id="svg_45"/>
  </g>
  <path d="m-0.91,36.64l0,-38l37,0l0,38l-37,0z" fill="#ffffff" id="svg_84"/>
 </g>
</svg>