<?xml version="1.0"?>
<svg width="352.13141683778235" height="364.392" xmlns="http://www.w3.org/2000/svg" xmlns:svg="http://www.w3.org/2000/svg">
 <defs>
  <clipPath id="clip0_194_2323">
   <rect fill="white" height="378" id="svg_1" width="368"/>
  </clipPath>
 </defs>
 <g class="layer">
  <title>Layer 1</title>
  <g clip-path="url(#clip0_194_2323)" id="svg_2">
   <path d="m503.09,-275.77l-1745.84,0l0,1188.68l1745.84,0l0,-1188.68z" fill="#3D5BA9" id="svg_3"/>
   <path d="m503.09,165.74c-164.79,16 -667.65,137.74 -699.66,747.17l699.66,0l0,-747.17z" fill="#B2D8C5" id="svg_4"/>
   <path d="m369.43,654.33l0,-690.1l-380.08,0l0,690.1l380.08,0z" fill="white" id="svg_5"/>
   <path d="m341.07,-89.63l-323.38,0c-24.66,0 -44.71,20.49 -44.71,45.67l0,725.05c0,25.19 20.06,45.67 44.71,45.67l323.38,0c24.66,0 44.71,-20.49 44.71,-45.67l0,-725.05c0,-25.18 -20.06,-45.67 -44.71,-45.67zm-351.73,53.86l380.08,0l0,690.1l-380.08,0l0,-690.1z" fill="#EFEFEF" id="svg_6"/>
   <path d="m335.74,223.42c0,0 -61.63,-62.94 -145.39,-25.82c-83.75,37.12 -79.01,58.1 -126.43,58.1c-47.4,0 -64.79,32.28 -48.98,67.79c15.8,35.5 94.82,51.64 164.35,37.12c69.53,-14.53 211.76,-46.81 156.45,-137.19z" fill="#F8E5C7" id="svg_7"/>
   <path d="m294.97,246.82l7.38,19.37c0,0 1.84,6.99 -3.96,9.14c-8.42,3.13 -11.58,-2.42 -11.58,-2.42l-5.27,-21.78l13.43,-4.31z" fill="#2AA275" id="svg_8"/>
   <path d="m119.46,304.42l1.09,20.75c0,0 -0.38,7.23 -6.55,7.43c-8.94,0.29 -10.26,-5.99 -10.26,-5.99l1.64,-22.38l14.08,0.19z" fill="#2AA275" id="svg_9"/>
   <path d="m55.99,261.7l-1.06,20.75c0,0 -1.13,7.15 -7.28,6.69c-8.92,-0.68 -9.59,-7.07 -9.59,-7.07l3.95,-22.07l13.98,1.7z" fill="#2AA275" id="svg_10"/>
   <path d="m99.86,313.92l193.88,-62.25c4.37,-1.4 7.8,-4.87 9.2,-9.32l31.57,-106.76c2.57,-8.07 -2.2,-16.65 -10.29,-18.54l-88.48,-18.55c-7,-1.64 -14.08,2.34 -16.48,9.25l-28.92,83.38c-1.52,4.38 -5.01,7.74 -9.37,9.04l-137.03,40.74c-10.62,3.15 -13.74,16.98 -5.54,24.56l47.73,45.38c3.72,3.44 8.94,4.61 13.73,3.07z" fill="#3D5BA9" id="svg_11"/>
   <path d="m100.54,305.07c-4.96,0 -9.84,-1.85 -13.61,-5.32l-48.96,-45.14c-0.65,-0.6 -0.7,-1.62 -0.11,-2.28c0.58,-0.67 1.58,-0.72 2.23,-0.12l48.96,45.14c4.47,4.13 10.82,5.54 16.57,3.7l176.91,-56.59c5.54,-1.77 9.87,-6.2 11.61,-11.85l31.73,-103.13c0.27,-0.85 1.16,-1.33 1.99,-1.06c0.83,0.27 1.29,1.17 1.03,2.02l-31.73,103.13c-2.05,6.66 -7.17,11.88 -13.68,13.97l-176.91,56.59c-1.97,0.64 -4.01,0.94 -6.03,0.94z" fill="white" id="svg_12"/>
   <path d="m338.94,134.36c-5.68,-15.33 -54.25,-42.5 -54.25,-42.5l-4.74,11.84l26.85,30.66c0,0 -18.17,-1.36 -25.28,-1.62c-2.9,-0.11 -10.19,-0.36 -13.54,-0.48c1.66,-4.29 5.13,-12.74 8.02,-19.73c1.84,-2.99 2.97,-6.25 3.64,-8.74c0.65,-1.56 1.04,-2.51 1.04,-2.51l-0.43,-0.18c0.18,-0.93 0.25,-1.48 0.25,-1.48c0,0 0.91,-6.66 -7.69,-11.3c-6.55,-3.54 -11.93,-4.7 -17.33,-1.43c-0.69,0.41 -1.44,1.16 -2.22,2.16l0.08,-4.06c0,0 -58.55,4.69 -69.73,16.45c-12.78,13.45 17.29,34.04 36.32,46.34c-2.18,5.04 -3.74,10.78 -5.3,16.7c-2.2,8.31 -5.07,18.99 -7.26,27.11c-15.29,-17.09 -39.08,-41.26 -50.69,-40.56c-17.9,1.08 -47.57,59.21 -52.31,76.42c0,0 -15.1,2.15 -12.99,4.84c1.92,2.45 21.07,0.5 24.23,0.5c3.16,0 31.6,-25.82 38.98,-41.95c0,0 10.44,17.63 24.34,32.63c-12.08,5.12 -21.68,9.29 -24.65,10.88c-10.19,5.45 -74.49,50.62 -74.49,50.62c0,0 -9.26,-14 -10.94,-10.35c-1.69,3.65 7.79,21.65 7.79,21.65c49.72,-1.43 89.54,-32.28 89.54,-32.28c0,0 53.03,-3.79 72.19,-12.78c0.56,-0.26 1.1,-0.52 1.63,-0.77c7.92,-3.83 13.42,-11.1 15.31,-19.46l31.35,-68.72c22.18,-3.51 58.87,-10.13 52.28,-27.9zm-102.01,-11.08c-6.63,-2.65 -26.51,-10.56 -26.51,-10.56l37.2,-13.03c-2.95,7.68 -4.39,16.35 -0.59,18.92c1.36,0.93 2.96,1.65 4.67,2.17c-0.88,2.67 -1.67,5.23 -2.29,7.52c-3.17,-1.28 -9.81,-3.95 -12.47,-5.02z" fill="#F4AB96" id="svg_13"/>
   <path d="m203.05,184.42l-18.61,-17.21l-7.81,16.32c-1.11,3.2 -2.79,6.15 -4.97,8.71l-10.75,12.62l16.5,18.65l10.53,-3.23c0,0 10.33,10.63 12.29,13.63c9.83,15.06 8.77,26.9 8.77,26.9c0,0 38.28,-7 48.28,-12.91c10.01,-5.92 10.53,-26.9 10.53,-26.9l-64.78,-36.58z" fill="#2AA275" id="svg_14"/>
   <path d="m94.01,59.63c0,0 4.74,-17.75 23.18,-16.67c18.43,1.07 22.12,19.9 22.12,19.9c0,0 23.18,-6.99 27.38,15.06c0,0 32.13,2.69 30.55,5.92c-1.58,3.23 -186.45,0 -186.45,0c0,0 0,-3.23 10,-4.3c10.01,-1.08 21.07,-3.23 21.07,-3.23c0,0 4.56,-21.39 25.82,-25.28c20.54,-3.77 26.33,8.6 26.33,8.6z" fill="#C8E6D8" id="svg_15"/>
   <path d="m248.36,127.94l-2.11,34.43l22.26,-30.8l33.04,1.21l1.58,31.2l-14.74,1.08l-12.64,74.23c0,0 -42.31,-9.33 -49.16,-14.71c-0.4,-0.31 1.41,-16.49 1.41,-16.49c0,0 -8.69,8.12 -9.13,7.53c-7.4,-9.66 -14.22,-27.43 -14.22,-27.43l13.17,-39.28l-17.91,-9.68l14.22,-26.35l34.24,15.06z" fill="#F7D441" id="svg_16"/>
   <path d="m257.07,104.03c-0.29,-0.9 -0.73,-1.5 -1.34,-1.78c-0.9,-0.44 -1.9,-0.04 -1.91,-0.03l-0.4,-1c0.06,-0.02 1.43,-0.58 2.76,0.05c0.88,0.42 1.52,1.24 1.89,2.44l-1,0.32z" fill="#0D1936" id="svg_17"/>
   <path d="m265.58,105.12l-0.43,0.97l6.05,2.83l0.44,-0.98l-6.06,-2.82z" fill="#0D1936" id="svg_18"/>
   <path d="m265.47,101.07c-0.15,0 -0.29,-0.07 -0.4,-0.19c-0.73,-0.86 -1.5,-1.32 -2.29,-1.38c-1.02,-0.06 -1.79,0.6 -1.8,0.61c-0.21,0.2 -0.55,0.18 -0.74,-0.04c-0.2,-0.22 -0.18,-0.56 0.04,-0.76c0.04,-0.04 1.08,-0.98 2.56,-0.88c1.09,0.07 2.1,0.66 3.02,1.74c0.2,0.23 0.17,0.57 -0.05,0.76c-0.1,0.09 -0.22,0.14 -0.34,0.14z" fill="#0D1936" id="svg_19"/>
   <path d="m255.2,96.74c-0.16,0 -0.33,-0.08 -0.43,-0.22c-0.57,-0.81 -1.17,-1.24 -1.8,-1.27c-1.01,-0.05 -1.81,0.88 -1.81,0.89c-0.2,0.23 -0.53,0.25 -0.75,0.06c-0.22,-0.2 -0.24,-0.54 -0.05,-0.76c0.05,-0.06 1.15,-1.33 2.65,-1.26c0.97,0.04 1.85,0.62 2.62,1.71c0.17,0.24 0.11,0.58 -0.12,0.75c-0.1,0.07 -0.21,0.1 -0.31,0.1z" fill="#0D1936" id="svg_20"/>
   <path d="m258.05,112.17c0,2.06 1.63,3.72 3.64,3.72c2.01,0 3.64,-1.66 3.64,-3.72c0,-2.05 -1.63,-3.72 -3.64,-3.72c-2.01,0 -3.64,1.67 -3.64,3.72z" fill="#E98A8B" id="svg_21"/>
   <path d="m249.34,105.49c0,-1.66 -1.06,-3.06 -2.53,-3.54c-0.82,2.44 -1.45,4.91 -1.79,7.19c0.22,0.05 0.45,0.07 0.68,0.07c2.01,0 3.64,-1.66 3.64,-3.72z" fill="#E98A8B" id="svg_22"/>
   <path d="m248.01,96.49l6.53,2.73c0.69,0.29 1.06,1.07 0.84,1.79c-0.59,1.91 -2.06,5.21 -5.13,5c-4.31,-0.29 -5.46,-3.08 -5.32,-4.84c0.1,-1.13 0.9,-2.92 1.46,-4.06c0.3,-0.61 1.01,-0.88 1.62,-0.62z" fill="#0D1936" id="svg_23"/>
   <path d="m258.74,100.99l6.53,2.73c0.69,0.29 1.06,1.07 0.83,1.8c-0.58,1.91 -2.05,5.2 -5.13,4.99c-4.3,-0.29 -5.45,-3.07 -5.31,-4.83c0.09,-1.13 0.89,-2.93 1.46,-4.07c0.3,-0.61 1,-0.88 1.62,-0.62z" fill="#0D1936" id="svg_24"/>
   <path d="m255.17,103.8c0.08,-0.55 -0.53,-0.92 -0.97,-0.6c-1.44,1.09 -3.7,3 -3.44,4.26c0.2,1.03 1.73,1.63 2.65,2.05c0.66,0.31 1.42,-0.13 1.52,-0.87l0.24,-4.84z" fill="#E98A8B" id="svg_25"/>
   <path d="m253.29,114.53c-1.77,0 -2.99,-1.05 -3,-1.07c-0.22,-0.19 -0.25,-0.53 -0.06,-0.75c0.19,-0.23 0.52,-0.25 0.74,-0.06c0.1,0.08 2.35,1.99 5.12,-0.36c0.22,-0.19 0.55,-0.16 0.74,0.07c0.19,0.22 0.16,0.56 -0.07,0.75c-1.26,1.08 -2.45,1.42 -3.47,1.42z" fill="#F2747B" id="svg_26"/>
   <path d="m259.52,122.99c-1.3,0 -2.66,-0.16 -4.06,-0.46c-3.22,-0.7 -5.51,-1.95 -5.61,-2c-0.25,-0.14 -0.35,-0.47 -0.21,-0.73c0.14,-0.26 0.46,-0.36 0.71,-0.22c0.09,0.05 8.95,4.82 15.8,0.55c0.25,-0.15 0.58,-0.07 0.73,0.18c0.15,0.26 0.07,0.59 -0.18,0.74c-2.06,1.28 -4.5,1.94 -7.19,1.94z" fill="#F2747B" id="svg_27"/>
   <path d="m249.41,94.59c-0.06,0 -0.11,-0.01 -0.17,-0.03c-0.27,-0.09 -0.43,-0.4 -0.33,-0.68l0.7,-2.15c0.1,-0.28 0.39,-0.43 0.67,-0.34c0.27,0.1 0.42,0.4 0.33,0.68l-0.7,2.15c-0.07,0.23 -0.28,0.37 -0.5,0.37z" fill="#F2747B" id="svg_28"/>
   <path d="m245.1,174.79c-0.63,0 -1.16,-0.19 -1.55,-0.57c-0.35,-0.34 -0.87,-1.12 -0.39,-2.56l2.33,-8.7c0.11,-0.43 0.55,-0.68 0.97,-0.56c0.42,0.11 0.66,0.56 0.55,0.99l-2.34,8.74c-0.15,0.46 -0.16,0.8 -0.03,0.92c0.14,0.14 0.65,0.23 1.47,-0.1l20.41,-8.11c2.16,-0.86 3.54,-3.03 3.43,-5.39l-0.16,-13.02c-0.01,-0.34 0.19,-0.64 0.49,-0.76l8.24,-3.37c0.34,-0.14 0.57,-0.44 0.62,-0.82c0.03,-0.17 0.04,-0.63 -0.38,-0.96l-10.41,-8.23c-0.34,-0.28 -0.41,-0.78 -0.14,-1.14c0.27,-0.35 0.76,-0.41 1.11,-0.14l10.41,8.24c0.75,0.59 1.11,1.51 0.98,2.46c-0.13,0.95 -0.73,1.73 -1.6,2.09l-7.73,3.16l0.15,12.44c0.14,3.03 -1.64,5.83 -4.44,6.94l-20.4,8.12c-0.57,0.22 -1.1,0.33 -1.59,0.33z" fill="#0D1936" id="svg_29"/>
   <path d="m241.51,170.17c-0.29,0 -0.55,-0.16 -0.7,-0.42l-7.59,-14.33c-0.01,-0.01 -0.02,-0.03 -0.03,-0.05c-1.07,-2.39 -0.21,-5.23 1.99,-6.6l3.15,-1.96l-5.62,-11.84c-0.51,-1.07 -0.5,-2.31 0.02,-3.38c0.52,-1.07 1.48,-1.81 2.63,-2.05l12.81,-2.92c0.43,-0.1 0.85,0.17 0.95,0.61c0.09,0.43 -0.17,0.86 -0.6,0.96l-12.83,2.93c-0.69,0.14 -1.24,0.57 -1.54,1.19c-0.3,0.62 -0.31,1.33 -0.01,1.96l5.93,12.49c0.18,0.38 0.05,0.83 -0.3,1.05l-3.77,2.33c-1.51,0.95 -2.1,2.89 -1.38,4.54l7.58,14.3c0.21,0.39 0.07,0.88 -0.32,1.09c-0.12,0.07 -0.25,0.1 -0.37,0.1z" fill="#0D1936" id="svg_30"/>
   <path d="m260.71,173.34l12.55,3.71c2.35,0.69 3.68,3.21 2.97,5.6l-3.09,10.29l-6.1,3.21c-3.41,1.8 -7.59,0.69 -9.7,-2.57l-4.63,-7.12l2.55,-9.96c0.62,-2.43 3.08,-3.86 5.45,-3.16z" fill="#0D1936" id="svg_31"/>
   <path d="m242.88,180.74c-0.24,0.89 -1.14,1.4 -2,1.15c-0.87,-0.24 -1.37,-1.16 -1.13,-2.04c0.24,-0.88 1.14,-1.4 2,-1.15c0.86,0.25 1.37,1.16 1.13,2.04z" fill="#0D1936" id="svg_32"/>
   <path d="m240.08,190.96c-0.24,0.89 -1.13,1.4 -2,1.15c-0.86,-0.24 -1.37,-1.16 -1.12,-2.04c0.24,-0.88 1.13,-1.4 2,-1.15c0.86,0.25 1.36,1.16 1.12,2.04z" fill="#0D1936" id="svg_33"/>
   <path d="m237.38,200.87c-0.24,0.88 -1.14,1.39 -2,1.15c-0.87,-0.25 -1.37,-1.16 -1.13,-2.05c0.24,-0.88 1.14,-1.39 2,-1.15c0.86,0.25 1.37,1.16 1.13,2.05z" fill="#0D1936" id="svg_34"/>
   <path d="m201.65,142.73c-0.28,0 -0.56,-0.08 -0.8,-0.27c-0.58,-0.45 -0.69,-1.29 -0.25,-1.88c7.55,-10.17 15.23,-26.85 15.31,-27.01c0.31,-0.68 1.09,-0.97 1.75,-0.65c0.66,0.31 0.94,1.11 0.63,1.78c-0.32,0.7 -7.87,17.11 -15.59,27.5c-0.26,0.35 -0.65,0.53 -1.05,0.53z" fill="#F5B819" id="svg_35"/>
   <path d="m301.38,166.76c-0.6,0 -1.13,-0.41 -1.28,-1.02c-3.87,-16.15 -2.86,-33.94 -2.85,-34.11c0.05,-0.75 0.66,-1.32 1.4,-1.26c0.72,0.04 1.28,0.68 1.23,1.42c-0.01,0.17 -0.99,17.56 2.78,33.31c0.17,0.72 -0.26,1.45 -0.97,1.62c-0.1,0.03 -0.21,0.04 -0.31,0.04z" fill="#F5B819" id="svg_36"/>
   <path d="m205.51,187.56c-0.12,0 -0.23,-0.02 -0.35,-0.05c-0.71,-0.2 -1.11,-0.94 -0.92,-1.66c3.84,-13.88 14.68,-42.51 14.79,-42.79c0.26,-0.7 1.03,-1.04 1.71,-0.77c0.67,0.27 1.01,1.05 0.75,1.74c-0.11,0.28 -10.91,28.79 -14.71,42.55c-0.16,0.59 -0.69,0.98 -1.27,0.98z" fill="#F5B819" id="svg_37"/>
   <path d="m161.62,209.17c-0.66,0 -1.33,-0.21 -1.9,-0.65c-1.39,-1.07 -1.67,-3.1 -0.62,-4.52c0.18,-0.24 17.94,-24.39 22.75,-37.22c0.63,-1.67 2.45,-2.5 4.09,-1.87c1.63,0.64 2.44,2.51 1.82,4.17c-5.13,13.69 -22.86,37.79 -23.61,38.81c-0.62,0.83 -1.57,1.28 -2.53,1.28z" fill="#2AA275" id="svg_38"/>
   <path d="m209.02,263.68c-1.67,0 -3.06,-1.34 -3.15,-3.06c-1.31,-25.68 -20.84,-38.93 -21.04,-39.06c-1.47,-0.98 -1.88,-2.97 -0.93,-4.47c0.95,-1.49 2.91,-1.92 4.37,-0.94c0.92,0.6 22.44,15.21 23.91,44.13c0.09,1.78 -1.25,3.3 -2.99,3.39c-0.05,0.01 -0.11,0.01 -0.17,0.01z" fill="#2AA275" id="svg_39"/>
   <path d="m187.96,221.72c-0.48,0 -0.91,-0.33 -1.03,-0.82c-0.13,-0.58 0.21,-1.16 0.78,-1.3l23.18,-5.74c0.57,-0.14 1.13,0.21 1.27,0.79c0.14,0.58 -0.21,1.16 -0.77,1.3l-23.18,5.74c-0.09,0.02 -0.17,0.03 -0.25,0.03z" fill="#189362" id="svg_40"/>
   <path d="m124.14,31.59c0,0 -21.57,8.26 -17.07,36.7c4.49,28.45 43.13,29.36 58.4,8.26c15.28,-21.1 -1.79,-43.13 -13.47,-45.88c-11.68,-2.75 -20.67,-2.75 -27.85,0.92z" fill="#F7D441" id="svg_41"/>
   <path d="m100.78,64.07c-2.47,0.09 -24.99,0.55 -19.98,6.67c5.01,6.11 28.86,-7 19.98,-6.67z" fill="#F7D441" id="svg_42"/>
   <path d="m138.8,95.66c0,0 -7.81,28.7 2.34,23.91c10.15,-4.78 0.79,-30.29 -2.34,-23.91z" fill="#F7D441" id="svg_43"/>
   <path d="m135.85,24.31c0,0 4.77,-26.6 -4.03,-21.43c-8.79,5.17 1.72,27.45 4.03,21.43z" fill="#F7D441" id="svg_44"/>
   <path d="m110.57,84.67c0,0 -17.93,15.5 -9.04,17.01c8.87,1.51 13.95,-19.81 9.04,-17.01z" fill="#F7D441" id="svg_45"/>
   <path d="m166.57,80.8c0,0 6.11,17.77 9.67,11.55c3.58,-6.23 -10.31,-16.01 -9.67,-11.55z" fill="#F7D441" id="svg_46"/>
   <path d="m168.55,36.74c2.03,-1.44 18,-9.76 11.75,-14.54c-6.25,-4.79 -19.05,19.74 -11.75,14.54z" fill="#F7D441" id="svg_47"/>
   <path d="m107.46,40.54c0,0 -19.41,-21.13 -21.44,-9.9c-1.54,8.51 25.29,15.86 21.44,9.9z" fill="#F7D441" id="svg_48"/>
   <path d="m188.04,62.99c0,0 -11.99,0.73 -13.01,-2.12c-1.02,-2.84 14.62,-7.52 16.43,-3.16c1.81,4.36 -3.42,5.28 -3.42,5.28z" fill="#F7D441" id="svg_49"/>
   <path d="m284.01,103.09c0.77,-1.96 3.18,-9.21 -0.61,-14.6c-4.42,-6.3 -18.5,-11.06 -24.71,-8.03c-4.46,2.18 -7.05,6.47 -8.15,8.71c-5.24,-2.18 -9.42,-3.93 -10.95,-4.58c-5.45,-2.3 -9.53,-3.48 -9.48,-1.68c0.07,2.22 52.79,22.17 52.79,22.17l0.86,-1.48l0.03,0.02c0,0 0.05,-0.12 0.13,-0.3l0.12,-0.21c0,0 -0.01,-0.01 -0.03,-0.02z" fill="#0D1936" id="svg_50"/>
   <path d="m266.62,98.18l-0.1,5.24c-0.02,0.81 0.41,1.57 1.12,1.96l1.11,0.6l-0.07,2.16c-0.02,0.77 0.47,1.44 1.2,1.64l0.55,0.15c0,0 2.54,-4.39 4.64,-2.82c2.09,1.56 0.02,6.24 -2.13,6.22l-1.76,0.25l1.55,7.14c0.85,0.34 1.81,-0.02 2.25,-0.84l8.31,-15.55c0,0 -6.77,-7.92 -16.66,-6.15z" fill="#0D1936" id="svg_51"/>
  </g>
  <path d="m-1.52,11.8l0,-17l19,0l0,17l-19,0z" fill="#ffffff" id="svg_52" stroke="#ffffff" transform="matrix(1 0 0 1 0 0)"/>
  <rect fill="#ffffff" height="372" id="svg_54" stroke="#ffffff" width="9" x="-1.53" y="8.81"/>
  <rect fill="#ffffff" height="383" id="svg_112" stroke="#ffffff" width="36" x="349.87" y="-7.79"/>
  <rect fill="#ffffff" height="30" id="svg_113" stroke="#ffffff" width="387" x="-2" y="-29.06"/>
 </g>
</svg>