<svg width="298" height="364" viewBox="0 0 298 364" fill="none" xmlns="http://www.w3.org/2000/svg">
<path d="M1.07718 153.022C1.07718 153.022 7.36806 223.128 72.4602 244.551C137.555 265.974 232.242 226.23 255.566 153.531C278.89 80.8321 238.852 27.4412 213.247 9.06759C196.526 -2.93326 150.934 -7.61151 120.978 33.0111C91.0213 73.6336 68.6069 80.4674 47.693 82.2987C18.078 84.8898 -4.00487 114.271 1.07718 153.022Z" fill="#C8E6D8"/>
<path d="M260.018 221.053C246.439 219.956 233.147 225.293 223.534 235.103C211.353 247.535 195.384 270.516 196.194 305.074C197.495 360.616 272.166 365.623 288.576 323.509C302.805 286.987 303.326 224.551 260.018 221.053Z" fill="#C8E6D8"/>
<path d="M293.663 49.8802C292.065 49.3381 290.021 55.4753 290.021 55.4753C290.021 55.4753 293.306 41.0353 292.242 40.8555C289.892 40.4578 287.09 50.602 287.09 50.602C287.09 50.602 289.665 37.4715 287.89 37.4715C285.969 37.4715 283.227 49.6547 283.227 49.6547C283.227 49.6547 284.516 39.3205 283.095 38.9609C281.079 38.4492 279.631 53.6719 279.631 53.6719C279.631 53.6719 279.097 46.8128 277.499 45.1892C275.902 43.5657 276.966 59.6293 276.966 59.6293L277.086 65.5208L252.254 115.999L245.061 106.252C245.061 106.252 229.291 84.0641 206.264 77.4152C206.298 74.2694 205.969 70.004 205.466 65.4043C207.268 65.2599 208.99 64.8977 210.536 64.2847C218.175 61.2478 213.452 35.6225 208.801 31.233C204.152 26.846 198.579 26.8131 191.364 28.8698C181.898 31.5698 181.399 38.32 181.399 38.32C181.399 38.32 181.349 38.8823 181.332 39.8322L180.871 39.9132C180.871 39.9132 181.09 41.3215 181.441 43.5783C181.571 45.2728 181.83 47.2383 182.324 49.2596C183.797 58.7706 185.923 72.5901 186.376 76.0551C186.384 76.1007 186.399 76.1513 186.406 76.1995C177.152 77.7825 166.913 81.7288 166.913 81.7288C166.913 81.7288 131.114 97.919 107.172 135.664C107.172 135.664 98.8998 157.412 90.8543 177.845C88.322 180.327 79.0527 190.316 82.0386 200.932C82.0386 200.932 87.0982 204.941 94.725 203.085C94.725 203.085 94.7749 195.484 97.9328 194.734L97.9203 200.413C97.9203 200.848 98.5235 200.947 98.6506 200.529C99.3535 198.222 100.542 194.164 102.157 188.148L131.077 151.961C132.737 149.884 134.848 148.227 137.246 147.121C141.657 145.082 149.511 141.343 157.347 137.075L162.619 162.13C160.358 166.512 157.322 173.868 154.748 185.213C149.952 206.329 152.101 270.82 152.101 270.82C152.101 270.82 129.973 310.295 138.764 360.654C138.764 360.654 163.541 363.09 166.736 360.654C169.934 358.217 153.948 353.344 153.948 353.344C153.948 353.344 183.004 278.943 186.202 267.572C187.548 262.783 191.04 242.616 194.626 220.878L214.975 275.875C214.975 275.875 209.292 343.524 225.276 359.77C225.276 359.77 251.386 360.854 250.853 359.228C250.32 357.604 240.729 355.438 238.598 353.27C236.467 351.105 246.058 306.379 244.46 266.85C242.862 227.322 229.007 178.906 229.007 178.906L225.119 163.579C225.119 163.579 226.422 147.364 227.566 131.247C237.96 138.326 261.598 150.872 269.838 141.452C280.211 129.59 287.429 86.017 289.785 69.9888C290.211 68.4615 295.196 50.3994 293.663 49.8802Z" fill="#F4AB96"/>
<path d="M85.2314 200.689L75.5358 199.141C73.9806 198.893 72.9537 197.897 73.3251 195.793C74.0229 192.411 75.2143 192.16 76.6001 192.368L87.2627 193.949C87.2627 193.949 87.4222 198.787 85.2314 200.689Z" fill="#2AA275"/>
<path d="M151.747 202.725C151.747 202.725 149.616 233.411 149.259 247.489L148.903 252.904L193.662 256.154L196.86 228.356L206.45 256.154L245.881 249.295C245.881 249.295 233.802 194.06 232.025 185.398L153.519 187.925L151.747 202.725Z" fill="#2AA275"/>
<path d="M192.246 257.339C192.199 257.339 192.149 257.339 192.102 257.337C149.842 255.407 148.943 255.23 148.646 255.171C146.914 254.827 145.785 253.12 146.124 251.359C146.453 249.655 148.038 248.522 149.71 248.766C151.58 248.948 176.195 250.108 192.388 250.845C194.153 250.926 195.519 252.443 195.439 254.237C195.362 255.979 193.946 257.339 192.246 257.339ZM149.735 248.768C149.783 248.776 149.828 248.783 149.875 248.793C149.845 248.786 149.798 248.778 149.735 248.768Z" fill="#2AA275"/>
<path d="M207.495 257.147C207.477 257.147 207.462 257.147 207.45 257.147C205.685 257.106 204.284 255.62 204.324 253.826C204.362 252.101 205.715 250.724 207.388 250.653C209.2 250.485 230.901 247.34 245.153 245.25C246.9 244.994 248.523 246.225 248.774 248.003C249.026 249.779 247.815 251.428 246.068 251.683C210.079 256.954 207.913 257.147 207.495 257.147ZM207.51 250.648C207.482 250.648 207.452 250.648 207.417 250.65C207.475 250.648 207.535 250.648 207.594 250.65C207.572 250.65 207.545 250.648 207.51 250.648Z" fill="#2AA275"/>
<path d="M218.354 192.477L233.052 190.235C232.593 188.09 232.24 186.416 232.03 185.398L153.524 187.925L152.659 195.132L165.069 198.434C165.069 198.434 166.001 220.255 150.391 223.938C149.892 232.357 149.414 241.453 149.262 247.492L148.905 252.907L193.664 256.157L196.862 228.358L206.453 256.157L245.883 249.297C245.883 249.297 242.87 235.521 239.635 220.648C222.158 221.93 218.354 192.477 218.354 192.477Z" fill="#2AA275"/>
<path d="M165.069 198.434L152.659 195.132L151.747 202.728C151.747 202.728 151.051 212.733 150.388 223.938C166.001 220.255 165.069 198.434 165.069 198.434Z" fill="#189362"/>
<path d="M218.354 192.477C218.354 192.477 222.158 221.93 239.635 220.648C237.152 209.247 234.54 197.214 233.052 190.238L218.354 192.477Z" fill="#189362"/>
<path d="M225.014 32.4234C223.396 32.7223 218.9 33.5556 213.237 34.6093C212.627 32.1777 210.974 27.3475 206.986 24.2118C201.481 19.8805 186.561 21.5041 180.876 26.7396C175.704 31.5015 177 39.8246 177.274 41.2936C176.115 41.5089 175.457 41.6305 175.457 41.6305L175.991 43.5251C175.991 43.5251 231.94 35.4426 232.474 33.277C232.908 31.5116 230.876 31.3393 225.014 32.4234Z" fill="#0D1936"/>
<path d="M195.441 39.9132L194.691 43.8316C194.387 45.4147 193.236 46.6912 191.71 47.132L191.09 50.5615L189.225 50.6527C189.225 50.6527 187.65 47.0154 185.252 48.097C182.855 49.1811 183.054 53.0387 186.384 53.7834L187.717 54.0822L184.697 60.7614C183.784 60.916 182.902 60.3537 182.64 59.4519L177.68 42.3498C177.68 42.3498 186.028 36.0328 195.441 39.9132Z" fill="#0D1936"/>
<path d="M183.847 74.434C175.275 77.2683 149.332 86.8655 129.048 105.082C127.508 106.465 126.972 108.674 127.667 110.639L139.713 144.608C140.262 146.158 142.001 146.895 143.472 146.199L154.969 140.765C155.436 140.545 150.737 205.676 150.737 205.676C150.707 206.043 150.972 206.367 151.333 206.408C155.859 206.902 182.929 209.741 194.923 208.558C195.23 208.528 195.474 208.285 195.516 207.973C195.516 207.973 198.831 191.788 198.933 192.576L201.019 208.746C201.074 209.179 237.561 196.033 237.538 195.729C237.252 191.839 230.939 168.369 230.612 163.379C229.902 152.549 228.748 137.382 228.748 137.382L232.137 140.297C232.424 140.588 232.9 140.555 233.144 140.226L252.421 111.328C252.558 111.143 252.595 110.9 252.513 110.685C251.317 107.445 241.135 82.6178 207.238 73.3398C206.834 73.2284 206.426 73.5222 206.393 73.9452L203.479 111.113C203.425 111.825 202.465 111.979 202.196 111.321L187.884 76.3261C187.226 74.7202 185.472 73.8971 183.847 74.434Z" fill="#F7D441"/>
<path d="M201.949 121.257C201.426 121.257 200.9 121.118 200.419 120.839L181.187 109.672C178.555 108.144 177.179 105.085 177.763 102.063L180.342 88.6993L173.087 84.3934C172.264 83.9045 171.778 83.0357 171.786 82.0682C171.793 81.1006 172.294 80.2394 173.124 79.7658L184.749 73.1397C185.135 72.9194 185.621 73.0587 185.838 73.4513C186.055 73.8439 185.918 74.3378 185.532 74.5581L173.907 81.1842C173.438 81.4501 173.386 81.901 173.383 82.0834C173.381 82.2657 173.428 82.7166 173.892 82.9927L181.636 87.5899C181.93 87.7647 182.082 88.1091 182.017 88.4485L179.33 102.377C178.879 104.715 179.944 107.08 181.98 108.263L201.211 119.431C201.722 119.727 202.316 119.699 202.799 119.355C203.28 119.01 203.507 118.453 203.405 117.863L202.38 111.936C202.303 111.495 202.595 111.072 203.028 110.996C203.462 110.923 203.878 111.214 203.953 111.657L204.977 117.584C205.187 118.793 204.703 119.981 203.716 120.687C203.183 121.065 202.567 121.257 201.949 121.257Z" fill="#0D1936"/>
<path d="M206.097 120.867C205.947 120.867 205.797 120.824 205.663 120.735C205.291 120.492 205.187 119.988 205.429 119.611L216.467 102.329C217.447 100.796 217.143 98.7549 215.762 97.5847L212.338 94.6845C212.021 94.416 211.956 93.9474 212.191 93.603L219.949 82.058C220.336 81.4831 220.435 80.7739 220.224 80.1102C220.012 79.4466 219.521 78.9324 218.875 78.6994L207.609 74.6113C207.193 74.4593 206.976 73.9958 207.126 73.5728C207.275 73.1498 207.732 72.932 208.148 73.0814L219.414 77.1695C220.53 77.5748 221.38 78.4639 221.746 79.6087C222.113 80.7536 221.938 81.9795 221.27 82.9749L213.92 93.912L216.787 96.3385C218.79 98.0355 219.232 100.991 217.811 103.215L206.772 120.497C206.615 120.738 206.358 120.867 206.097 120.867Z" fill="#0D1936"/>
<path d="M197.704 45.6603C197.582 45.6603 197.458 45.6173 197.356 45.5286C197.134 45.3336 197.109 44.9916 197.301 44.7637C198.233 43.6669 199.26 43.0768 200.354 43.0058C201.852 42.9147 202.906 43.8518 202.951 43.8923C203.17 44.0924 203.188 44.4344 202.991 44.6573C202.794 44.8776 202.46 44.8979 202.241 44.7003C202.226 44.6877 201.453 44.0165 200.409 44.0899C199.614 44.1456 198.839 44.6117 198.106 45.4729C198.004 45.597 197.854 45.6603 197.704 45.6603Z" fill="#0D1936"/>
<path d="M208.763 43.9025C208.656 43.9025 208.547 43.8696 208.454 43.8012C208.215 43.6264 208.16 43.2895 208.332 43.0464C209.107 41.9471 210 41.3671 210.979 41.3215C212.51 41.2429 213.614 42.5347 213.661 42.5905C213.853 42.8159 213.828 43.1578 213.606 43.3528C213.384 43.5479 213.048 43.5226 212.856 43.2972C212.836 43.2744 212.014 42.3498 211.024 42.403C210.388 42.4334 209.775 42.8615 209.2 43.6771C209.092 43.8214 208.928 43.9025 208.763 43.9025Z" fill="#0D1936"/>
<path d="M202.502 47.2865C202.502 47.9957 201.937 48.5732 201.236 48.5732C200.538 48.5732 199.97 47.9982 199.97 47.2865C199.97 46.5747 200.536 45.9997 201.236 45.9997C201.934 45.9997 202.502 46.5747 202.502 47.2865Z" fill="#0D1936"/>
<path d="M213.225 46.405C213.225 47.1142 212.659 47.6917 211.959 47.6917C211.258 47.6917 210.693 47.1168 210.693 46.405C210.693 45.6933 211.258 45.1183 211.959 45.1183C212.659 45.1183 213.225 45.6958 213.225 46.405Z" fill="#0D1936"/>
<path d="M206.63 46.3315C206.735 45.7819 207.435 45.6274 207.749 46.0859C208.788 47.598 210.334 50.1663 209.696 51.2783C209.172 52.1901 207.52 52.261 206.498 52.3598C205.77 52.4307 205.182 51.762 205.319 51.0326L206.63 46.3315Z" fill="#E98A8B"/>
<path d="M200.942 52.8689C200.942 54.9358 199.292 56.6126 197.258 56.6126C195.225 56.6126 193.575 54.9358 193.575 52.8689C193.575 50.8021 195.225 49.1253 197.258 49.1253C199.295 49.1279 200.942 50.8021 200.942 52.8689Z" fill="#E98A8B"/>
<path d="M207.084 55.0244C206.485 54.9738 205.738 54.875 205.007 54.6724C204.422 54.5103 203.818 54.8522 203.649 55.4449C203.345 56.5112 203.086 58.0512 203.833 58.725C205.032 59.8091 206.565 59.5381 207.363 58.6566C207.781 58.1956 208.018 57.228 208.148 56.415C208.26 55.726 207.769 55.0801 207.084 55.0244Z" fill="#F2747B"/>
<path d="M203.235 65.9235C194.43 65.9235 191.902 61.9063 191.79 61.7163C191.635 61.4605 191.715 61.1287 191.967 60.9717C192.216 60.8172 192.543 60.8957 192.697 61.149C192.71 61.1667 193.43 62.3015 195.436 63.2969C197.313 64.229 200.725 65.2269 206.316 64.6849C206.607 64.6545 206.869 64.8749 206.897 65.1737C206.924 65.4701 206.71 65.7361 206.416 65.7639C205.274 65.8728 204.215 65.9235 203.235 65.9235Z" fill="#E98A8B"/>
<path d="M214.184 47.4562C212.751 48.1629 211.759 49.6522 211.759 51.3821C211.759 53.2387 212.901 54.8193 214.508 55.4525C214.665 52.9753 214.528 50.2145 214.184 47.4562Z" fill="#E98A8B"/>
<path d="M96.5271 195.501L106.248 196.877C107.808 197.097 108.852 198.075 108.516 200.185C107.875 203.579 106.689 203.85 105.3 203.667L94.6129 202.277C94.6129 202.277 94.3711 197.444 96.5271 195.501Z" fill="#2AA275"/>
<path d="M169.116 121.161L182.247 119.542C184.699 119.241 186.92 121.037 187.177 123.534L188.291 134.309L183.859 139.74C181.384 142.771 177.062 143.428 173.827 141.259L166.764 136.53L165.273 126.277C164.912 123.78 166.646 121.465 169.116 121.161Z" fill="#0D1936"/>
<path d="M150.735 207.029C150.014 207.029 149.421 206.446 149.404 205.709C148.399 165.074 157.808 117.947 157.903 117.476C158.05 116.744 158.755 116.267 159.476 116.422C160.196 116.571 160.66 117.288 160.513 118.02C160.418 118.489 151.069 165.319 152.066 205.641C152.083 206.388 151.502 207.008 150.767 207.029C150.757 207.029 150.745 207.029 150.735 207.029Z" fill="#F5B819"/>
<path d="M207.208 127.541C207.208 128.463 206.473 129.21 205.566 129.21C204.658 129.21 203.923 128.463 203.923 127.541C203.923 126.619 204.658 125.872 205.566 125.872C206.473 125.872 207.208 126.619 207.208 127.541Z" fill="#0D1936"/>
<path d="M207.208 138.222C207.208 139.144 206.473 139.892 205.566 139.892C204.658 139.892 203.923 139.144 203.923 138.222C203.923 137.3 204.658 136.553 205.566 136.553C206.473 136.553 207.208 137.3 207.208 138.222Z" fill="#0D1936"/>
<path d="M207.208 148.572C207.208 149.494 206.473 150.241 205.566 150.241C204.658 150.241 203.923 149.494 203.923 148.572C203.923 147.65 204.658 146.903 205.566 146.903C206.473 146.903 207.208 147.65 207.208 148.572Z" fill="#0D1936"/>
<path d="M147.485 144.555C147.103 144.555 146.724 144.388 146.46 144.068C135.701 130.945 130.918 103.965 130.718 102.823C130.591 102.086 131.075 101.384 131.797 101.255C132.52 101.123 133.213 101.617 133.34 102.354C133.388 102.628 138.2 129.77 148.504 142.336C148.975 142.911 148.898 143.764 148.335 144.243C148.088 144.451 147.786 144.555 147.485 144.555Z" fill="#F5B819"/>
<path d="M230.076 141.847C229.862 141.847 229.645 141.794 229.443 141.682C228.798 141.325 228.556 140.505 228.907 139.849C235.781 126.951 249.081 106.381 249.213 106.176C249.617 105.553 250.444 105.378 251.057 105.789C251.67 106.199 251.842 107.04 251.439 107.663C251.307 107.868 238.069 128.342 231.248 141.138C231.008 141.589 230.55 141.847 230.076 141.847Z" fill="#F5B819"/>
<path d="M66.5357 242.747C66.3637 242.747 66.1892 242.727 66.0123 242.689C64.7187 242.398 63.9062 241.096 64.1928 239.781L73.8734 195.603C74.1625 194.291 75.4436 193.462 76.7347 193.754C78.0283 194.045 78.8408 195.349 78.5542 196.661L68.8736 240.84C68.6268 241.975 67.6349 242.747 66.5357 242.747Z" fill="#2AA275"/>
<path d="M95.9762 246.539C95.8018 246.539 95.6248 246.519 95.4478 246.478C94.1568 246.182 93.3442 244.878 93.6358 243.566L103.583 198.71C103.875 197.398 105.158 196.573 106.449 196.869C107.74 197.165 108.553 198.47 108.261 199.782L98.3141 244.637C98.0624 245.769 97.0729 246.539 95.9762 246.539Z" fill="#2AA275"/>
<path d="M84.4961 351.386L24.5708 345.725C18.2649 344.053 14.4864 337.503 16.1314 331.095L37.4591 245.936C39.1041 239.528 45.5495 235.688 51.8554 237.36L112.037 245.478C118.343 247.15 122.124 253.7 120.477 260.108L98.8899 342.807C97.2499 349.215 90.8045 353.055 84.4961 351.386Z" fill="#4563AD"/>
<path d="M98.8949 342.807L120.482 260.108C122.127 253.7 118.348 247.15 112.042 245.478L51.8603 237.36C46.21 235.863 40.45 238.791 38.1296 244.027L108.057 252.226L82.7689 351.153L84.5036 351.386C90.8045 353.055 97.2499 349.215 98.8949 342.807Z" fill="#3D5BA9"/>
<path d="M81.4105 354.451C81.4105 358.156 78.4545 361.163 74.8055 361.163C71.1591 361.163 68.2031 358.159 68.2031 354.451C68.2031 350.745 71.1591 347.741 74.8055 347.741C78.4545 347.741 81.4105 350.745 81.4105 354.451Z" fill="#2AA275"/>
<path d="M43.1094 351.923C43.1094 355.628 40.1534 358.635 36.5045 358.635C32.8556 358.635 29.902 355.631 29.902 351.923C29.902 348.217 32.8581 345.211 36.5045 345.211C40.1509 345.211 43.1094 348.217 43.1094 351.923Z" fill="#2AA275"/>
<path d="M28.8353 340.852L44.8217 342.657L43.1094 351.925C43.1094 351.925 35.9412 352.313 36.2952 348.432C36.5095 346.089 31.3228 346.626 31.3228 346.626C31.3228 346.626 26.7043 345.905 28.8353 340.852Z" fill="#3D5BA9"/>
<path d="M67.2012 345.725L83.1876 347.531L81.4753 356.799C81.4753 356.799 74.3071 357.186 74.661 353.306C74.8753 350.963 69.6886 351.5 69.6886 351.5C69.6886 351.5 65.0702 350.778 67.2012 345.725Z" fill="#3D5BA9"/>
<path d="M31.7564 298.279L26.1883 319.519C24.5907 325.611 28.7107 331.715 34.8794 332.397L70.0625 336.28C75.0523 336.829 79.6857 333.582 80.9519 328.648L86.4327 307.296C87.9955 301.204 83.8605 295.128 77.7018 294.467L42.6059 290.695C37.6435 290.161 33.04 293.38 31.7564 298.279Z" fill="#3D5BA9"/>
<path d="M100.061 293.198C99.189 293.198 98.3715 292.651 98.0574 291.772C96.4025 287.149 92.4295 286.693 92.3897 286.688C91.8538 286.625 42.2271 280.726 35.9413 280.194C30.924 279.766 28.3792 283.98 28.3543 284.023C27.7487 285.049 26.4401 285.381 25.4307 284.766C24.4213 284.15 24.0948 282.82 24.7004 281.795C24.8599 281.526 28.6659 275.237 36.2977 275.878C42.6533 276.415 90.8045 282.139 92.8508 282.382C93.0876 282.405 99.5055 283.137 102.065 290.29C102.467 291.414 101.896 292.658 100.792 293.066C100.547 293.157 100.303 293.198 100.061 293.198Z" fill="white"/>
<path d="M105.388 273.162C104.518 273.162 103.7 272.615 103.384 271.736C101.729 267.114 97.7558 266.658 97.716 266.653C97.1801 266.59 47.5534 260.69 41.2675 260.159C36.2528 259.731 33.7055 263.945 33.6806 263.988C33.0749 265.014 31.7664 265.346 30.757 264.73C29.7476 264.115 29.421 262.785 30.0267 261.759C30.1862 261.491 33.9946 255.202 41.624 255.84C47.9796 256.377 96.1308 262.101 98.1771 262.344C98.4138 262.367 104.832 263.099 107.392 270.252C107.793 271.377 107.222 272.62 106.118 273.028C105.876 273.119 105.629 273.162 105.388 273.162Z" fill="white"/>
<path d="M43.5805 287.514C43.3886 287.514 43.1917 287.491 42.9973 287.44C41.7112 287.114 40.9311 285.791 41.2526 284.484L43.917 273.654C44.2385 272.349 45.542 271.554 46.8256 271.881C48.1117 272.208 48.8919 273.53 48.5704 274.837L45.906 285.667C45.6318 286.774 44.6547 287.514 43.5805 287.514Z" fill="#2AA275"/>
<path d="M81.9439 291.483C81.752 291.483 81.5551 291.46 81.3607 291.409C80.0771 291.083 79.2944 289.76 79.616 288.453L82.2804 277.623C82.6019 276.318 83.9029 275.523 85.189 275.85C86.4751 276.177 87.2553 277.499 86.9337 278.806L84.2693 289.636C83.9977 290.743 83.0181 291.483 81.9439 291.483Z" fill="#2AA275"/>
<path d="M48.9068 265.853C48.7149 265.853 48.518 265.83 48.3236 265.779C47.0375 265.452 46.2574 264.13 46.5789 262.823L49.2433 251.993C49.5648 250.688 50.8658 249.893 52.1519 250.219C53.438 250.546 54.2182 251.868 53.8966 253.175L51.2322 264.006C50.9606 265.113 49.981 265.853 48.9068 265.853Z" fill="#2AA275"/>
<path d="M87.2727 269.824C87.0808 269.824 86.8839 269.801 86.6895 269.751C85.4034 269.424 84.6233 268.102 84.9448 266.795L87.6092 255.964C87.9307 254.66 89.2342 253.867 90.5178 254.191C91.8039 254.518 92.5841 255.84 92.2626 257.147L89.5982 267.978C89.3265 269.084 88.347 269.824 87.2727 269.824Z" fill="#2AA275"/>
<path d="M138.118 356.553H159.473L159.787 355.37C156.759 354.195 153.95 353.339 153.95 353.339C153.95 353.339 159.224 339.833 165.525 323.456L137.368 322.764C136.386 333.063 136.381 344.463 138.118 356.553Z" fill="#F8E5C7"/>
<path d="M240.736 354.603C239.804 354.159 239.041 353.711 238.6 353.265C237.546 352.194 239.358 340.715 241.267 324.605L215.229 328.385C216.408 339.367 218.601 349.57 222.484 356.064L240.2 358.45L240.736 354.603Z" fill="#F8E5C7"/>
<path d="M220.587 352.764C220.587 352.764 219.361 356.553 219.974 359.803C220.587 363.052 245.739 363.052 251.259 363.052C256.78 363.052 256.167 357.637 256.167 357.637L238.603 349.919L237.491 351.312C235.704 353.551 232.883 354.661 230.079 354.228L220.587 352.764Z" fill="#4563AD"/>
<path d="M137.463 352.764C137.463 352.764 136.236 356.553 136.849 359.803C137.463 363.052 162.614 363.052 168.134 363.052C173.655 363.052 173.042 357.637 173.042 357.637L156.011 348.567C153.486 351.561 149.755 353.222 145.877 353.078L137.463 352.764Z" fill="#4563AD"/>
</svg>
