<svg width="114" height="28" viewBox="0 0 114 28" fill="none" xmlns="http://www.w3.org/2000/svg">
<g clip-path="url(#clip0_174_1208)">
<path d="M14.1982 17.4274V19.3857C14.1982 19.6454 14.095 19.8945 13.9114 20.078C13.7278 20.2616 13.4787 20.3648 13.219 20.3648H6.3649C6.10521 20.3648 5.85616 20.2616 5.67253 20.078C5.4889 19.8945 5.38574 19.6454 5.38574 19.3857V8.6149C5.38574 8.35521 5.4889 8.10616 5.67253 7.92253C5.85616 7.7389 6.10521 7.63574 6.3649 7.63574H13.219C13.4787 7.63574 13.7278 7.7389 13.9114 7.92253C14.095 8.10616 14.1982 8.35521 14.1982 8.6149V10.5732" stroke="#292B2D" stroke-linecap="round" stroke-linejoin="round"/>
<path d="M11.2607 14.0005H18.1149" stroke="#292B2D" stroke-linecap="round" stroke-linejoin="round"/>
<path d="M16.1567 12.042L18.1151 14.0003L16.1567 15.9586" stroke="#292B2D" stroke-linecap="round" stroke-linejoin="round"/>
</g>
<rect y="2.24951" width="23.501" height="23.501" rx="4" fill="#292B2D" fill-opacity="0.2"/>
<path d="M39.3906 22.5V6.5H42.7734V19.7109H49.6328V22.5H39.3906ZM57.2324 22.7344C56.0189 22.7344 54.9694 22.4766 54.084 21.9609C53.2038 21.4401 52.5241 20.7161 52.0449 19.7891C51.5658 18.8568 51.3262 17.776 51.3262 16.5469C51.3262 15.3073 51.5658 14.224 52.0449 13.2969C52.5241 12.3646 53.2038 11.6406 54.084 11.125C54.9694 10.6042 56.0189 10.3438 57.2324 10.3438C58.446 10.3438 59.4928 10.6042 60.373 11.125C61.2585 11.6406 61.9408 12.3646 62.4199 13.2969C62.8991 14.224 63.1387 15.3073 63.1387 16.5469C63.1387 17.776 62.8991 18.8568 62.4199 19.7891C61.9408 20.7161 61.2585 21.4401 60.373 21.9609C59.4928 22.4766 58.446 22.7344 57.2324 22.7344ZM57.248 20.1562C57.8001 20.1562 58.2611 20 58.6309 19.6875C59.0007 19.3698 59.2793 18.9375 59.4668 18.3906C59.6595 17.8437 59.7559 17.2214 59.7559 16.5234C59.7559 15.8255 59.6595 15.2031 59.4668 14.6562C59.2793 14.1094 59.0007 13.6771 58.6309 13.3594C58.2611 13.0417 57.8001 12.8828 57.248 12.8828C56.6908 12.8828 56.222 13.0417 55.8418 13.3594C55.4668 13.6771 55.1829 14.1094 54.9902 14.6562C54.8027 15.2031 54.709 15.8255 54.709 16.5234C54.709 17.2214 54.8027 17.8437 54.9902 18.3906C55.1829 18.9375 55.4668 19.3698 55.8418 19.6875C56.222 20 56.6908 20.1562 57.248 20.1562ZM70.709 27.25C69.6309 27.25 68.7064 27.1016 67.9355 26.8047C67.1699 26.513 66.5605 26.1146 66.1074 25.6094C65.6543 25.1042 65.36 24.5365 65.2246 23.9062L68.3027 23.4922C68.3965 23.7318 68.5449 23.9557 68.748 24.1641C68.9512 24.3724 69.2194 24.5391 69.5527 24.6641C69.8913 24.7943 70.3027 24.8594 70.7871 24.8594C71.5111 24.8594 72.1074 24.6823 72.5762 24.3281C73.0501 23.9792 73.2871 23.3932 73.2871 22.5703V20.375H73.1465C73.0007 20.7083 72.7819 21.0234 72.4902 21.3203C72.1986 21.6172 71.8236 21.8594 71.3652 22.0469C70.9069 22.2344 70.36 22.3281 69.7246 22.3281C68.8236 22.3281 68.0033 22.1198 67.2637 21.7031C66.5293 21.2812 65.9434 20.638 65.5059 19.7734C65.0736 18.9036 64.8574 17.8047 64.8574 16.4766C64.8574 15.1172 65.0788 13.9818 65.5215 13.0703C65.9642 12.1589 66.5527 11.4766 67.2871 11.0234C68.0267 10.5703 68.8366 10.3438 69.7168 10.3438C70.3887 10.3438 70.9512 10.4583 71.4043 10.6875C71.8574 10.9115 72.222 11.1927 72.498 11.5312C72.7793 11.8646 72.9954 12.1927 73.1465 12.5156H73.2715V10.5H76.5762V22.6172C76.5762 23.638 76.3262 24.4922 75.8262 25.1797C75.3262 25.8672 74.6335 26.3828 73.748 26.7266C72.8678 27.0755 71.8548 27.25 70.709 27.25ZM70.7793 19.8281C71.3158 19.8281 71.7689 19.6953 72.1387 19.4297C72.5137 19.1589 72.8001 18.7734 72.998 18.2734C73.2012 17.7682 73.3027 17.1641 73.3027 16.4609C73.3027 15.7578 73.2038 15.1484 73.0059 14.6328C72.8079 14.112 72.5215 13.7083 72.1465 13.4219C71.7715 13.1354 71.3158 12.9922 70.7793 12.9922C70.2324 12.9922 69.7715 13.1406 69.3965 13.4375C69.0215 13.7292 68.7376 14.1354 68.5449 14.6562C68.3522 15.1771 68.2559 15.7786 68.2559 16.4609C68.2559 17.1536 68.3522 17.7526 68.5449 18.2578C68.7428 18.7578 69.0267 19.1458 69.3965 19.4219C69.7715 19.6927 70.2324 19.8281 70.7793 19.8281ZM84.6465 22.7344C83.4329 22.7344 82.3835 22.4766 81.498 21.9609C80.6178 21.4401 79.9382 20.7161 79.459 19.7891C78.9798 18.8568 78.7402 17.776 78.7402 16.5469C78.7402 15.3073 78.9798 14.224 79.459 13.2969C79.9382 12.3646 80.6178 11.6406 81.498 11.125C82.3835 10.6042 83.4329 10.3438 84.6465 10.3438C85.86 10.3438 86.9069 10.6042 87.7871 11.125C88.6725 11.6406 89.3548 12.3646 89.834 13.2969C90.3132 14.224 90.5527 15.3073 90.5527 16.5469C90.5527 17.776 90.3132 18.8568 89.834 19.7891C89.3548 20.7161 88.6725 21.4401 87.7871 21.9609C86.9069 22.4766 85.86 22.7344 84.6465 22.7344ZM84.6621 20.1562C85.2142 20.1562 85.6751 20 86.0449 19.6875C86.4147 19.3698 86.6934 18.9375 86.8809 18.3906C87.0736 17.8437 87.1699 17.2214 87.1699 16.5234C87.1699 15.8255 87.0736 15.2031 86.8809 14.6562C86.6934 14.1094 86.4147 13.6771 86.0449 13.3594C85.6751 13.0417 85.2142 12.8828 84.6621 12.8828C84.1048 12.8828 83.6361 13.0417 83.2559 13.3594C82.8809 13.6771 82.597 14.1094 82.4043 14.6562C82.2168 15.2031 82.123 15.8255 82.123 16.5234C82.123 17.2214 82.2168 17.8437 82.4043 18.3906C82.597 18.9375 82.8809 19.3698 83.2559 19.6875C83.6361 20 84.1048 20.1562 84.6621 20.1562ZM100.412 17.3906V10.5H103.74V22.5H100.545V20.3203H100.42C100.149 21.0234 99.6986 21.5885 99.0684 22.0156C98.4434 22.4427 97.6803 22.6563 96.7793 22.6563C95.9772 22.6563 95.2715 22.474 94.6621 22.1094C94.0527 21.7448 93.5762 21.2266 93.2324 20.5547C92.8939 19.8828 92.722 19.0781 92.7168 18.1406V10.5H96.0449V17.5469C96.0501 18.2552 96.2402 18.8151 96.6152 19.2266C96.9902 19.638 97.4928 19.8437 98.123 19.8437C98.5241 19.8437 98.8991 19.7526 99.248 19.5703C99.597 19.3828 99.8783 19.1068 100.092 18.7422C100.311 18.3776 100.417 17.9271 100.412 17.3906ZM112.785 10.5V13H105.559V10.5H112.785ZM107.199 7.625H110.527V18.8125C110.527 19.1198 110.574 19.3594 110.668 19.5312C110.762 19.6979 110.892 19.8151 111.059 19.8828C111.23 19.9505 111.428 19.9844 111.652 19.9844C111.809 19.9844 111.965 19.9714 112.121 19.9453C112.277 19.9141 112.397 19.8906 112.48 19.875L113.004 22.3516C112.837 22.4036 112.603 22.4635 112.301 22.5313C111.999 22.6042 111.632 22.6484 111.199 22.6641C110.397 22.6953 109.694 22.5885 109.09 22.3437C108.491 22.099 108.025 21.7187 107.691 21.2031C107.358 20.6875 107.194 20.0365 107.199 19.25V7.625Z" fill="#292B2D"/>
<defs>
<clipPath id="clip0_174_1208">
<rect width="13.7083" height="13.7083" fill="white" transform="translate(4.896 7.146)"/>
</clipPath>
</defs>
</svg>
