<svg width="270" height="214" viewBox="0 0 270 214" fill="none" xmlns="http://www.w3.org/2000/svg">
<g clip-path="url(#clip0_194_1071)">
<path opacity="0.1" d="M165.834 40.748C165.834 40.748 168.04 26.0308 174.252 26.6042C175.971 26.7632 177.141 28.5728 177.907 30.5165C178.379 31.7143 180.03 31.6301 180.372 30.3856C182.015 24.405 185.377 15.2778 190.586 15.2778C195.974 15.2778 196.152 25.7212 195.761 32.081C195.702 33.0388 196.898 33.4647 197.417 32.67C198.838 30.4968 200.912 28.4118 203.434 29.0164C208.346 30.1945 207.024 40.748 207.024 40.748H165.834Z" fill="#243845"/>
<path opacity="0.1" d="M44.657 77.4012H5.04102C5.04102 77.4012 6.78001 65.7933 11.681 66.2452C13.036 66.3698 13.959 67.7993 14.564 69.3305C14.936 70.2758 16.238 70.2094 16.508 69.2277C17.804 64.5093 20.455 57.3091 24.564 57.3091C28.813 57.3091 28.954 65.547 28.646 70.5636C28.6 71.3199 29.543 71.6554 29.952 71.029C31.073 69.3149 32.709 67.6694 34.699 68.1462C36.398 68.5534 37.152 70.3839 37.462 72.3109C37.555 72.8895 38.327 72.9654 38.526 72.4158C39.561 69.558 41.397 65.4026 43.346 65.3154C46.324 65.1855 44.657 77.4012 44.657 77.4012Z" fill="#243845"/>
<path opacity="0.2" d="M84.496 69.5903C101.186 69.5903 114.715 55.5354 114.715 38.1977C114.715 20.8601 101.186 6.80518 84.496 6.80518C67.8065 6.80518 54.277 20.8601 54.277 38.1977C54.277 55.5354 67.8065 69.5903 84.496 69.5903Z" fill="#FCC100"/>
<path opacity="0.1" d="M136.491 172.807C203.236 172.807 257.343 167.835 257.343 161.701C257.343 155.567 203.236 150.595 136.491 150.595C69.7463 150.595 15.639 155.567 15.639 161.701C15.639 167.835 69.7463 172.807 136.491 172.807Z" fill="#243845"/>
<path d="M210.662 146.715C211.726 147.451 212.838 148.077 213.981 148.61C214.299 148.758 214.618 148.9 214.94 149.031C224.516 153.012 235.618 150.783 235.618 150.783C235.618 150.783 255.667 148.758 254.607 138.722C253.547 128.687 244.625 134.874 241.354 133.143C238.083 131.413 247.018 125.125 254.074 118.36C261.13 111.593 258.671 105.602 254.86 105.856C251.047 106.112 251.18 100.902 255.428 96.7393C259.929 92.3294 266.953 81.0113 260.33 78.621C252.762 75.8888 248.233 92.3273 241.964 92.0791C235.696 91.8308 241.384 85.2446 236.62 84.5963C231.855 83.9481 226.538 94.6024 228.165 103.987C229.793 113.372 224.172 121.058 222.483 118.314C220.793 115.571 222.364 106.498 218.337 105.066C210.543 102.295 200.498 139.676 210.662 146.715Z" fill="#00C67D"/>
<path d="M213.981 148.61C214.299 148.758 214.618 148.9 214.94 149.031C226.712 129.673 253.883 89.5423 254.175 89.1102C254.338 88.8702 254.283 88.5367 254.051 88.3674C253.818 88.1981 253.499 88.2563 253.335 88.4983C253.043 88.9315 225.725 129.276 213.981 148.61Z" fill="#009271"/>
<path d="M238.965 111.305C239.049 111.316 239.136 111.307 239.22 111.272C239.484 111.163 239.613 110.853 239.509 110.579C239.48 110.503 236.618 102.944 236.371 97.9163C236.357 97.6213 236.114 97.3948 235.832 97.4104C235.549 97.425 235.331 97.6764 235.345 97.9704C235.601 103.174 238.434 110.656 238.554 110.971C238.625 111.159 238.786 111.281 238.965 111.305Z" fill="#009271"/>
<path d="M235.922 116.426C235.932 116.427 235.942 116.429 235.953 116.429C236.27 116.452 243.782 116.983 249.308 115.333C249.58 115.252 249.738 114.956 249.66 114.674C249.582 114.39 249.297 114.227 249.025 114.308C243.677 115.905 236.103 115.371 236.026 115.365C235.743 115.345 235.498 115.566 235.478 115.86C235.458 116.142 235.655 116.39 235.922 116.426Z" fill="#009271"/>
<path d="M222.748 136.058C222.876 136.076 223.01 136.044 223.122 135.956C223.349 135.781 223.396 135.446 223.227 135.21C223.174 135.136 217.959 127.812 217.715 122.751C217.701 122.457 217.459 122.229 217.177 122.245C216.893 122.259 216.675 122.51 216.69 122.804C216.949 128.19 222.181 135.537 222.404 135.847C222.489 135.968 222.615 136.04 222.748 136.058Z" fill="#009271"/>
<path d="M228.024 141.997C230.936 142.393 234.201 142.558 237.033 142.019C237.312 141.966 237.497 141.688 237.446 141.398C237.395 141.108 237.127 140.916 236.848 140.969C230.091 142.256 220.367 139.261 220.269 139.231C219.998 139.146 219.711 139.307 219.63 139.588C219.548 139.871 219.702 140.168 219.974 140.252C220.216 140.33 223.738 141.414 228.024 141.997Z" fill="#009271"/>
<path d="M83.227 112.202C82.222 113.023 81.16 113.739 80.061 114.362C79.755 114.534 79.448 114.703 79.137 114.859C69.891 119.607 58.655 118.289 58.655 118.289C58.655 118.289 38.515 117.902 38.815 107.811C39.115 97.7197 48.476 103.162 51.607 101.171C54.738 99.1803 45.356 93.6392 37.811 87.4675C30.266 81.2968 32.266 75.123 36.084 75.0669C39.905 75.0118 39.378 69.8291 34.83 66.0249C30.01 61.9952 22.154 51.2827 28.577 48.3615C35.916 45.0217 41.671 61.0405 47.902 60.2832C54.132 59.5249 47.964 53.4217 52.665 52.3881C57.366 51.3534 63.471 61.5433 62.556 71.031C61.642 80.5187 67.824 87.724 69.302 84.8506C70.78 81.9793 68.53 73.0619 72.436 71.3063C79.995 67.9093 92.829 104.359 83.227 112.202Z" fill="#00C67D"/>
<path d="M80.0611 114.362C79.7551 114.534 79.4481 114.703 79.1371 114.86C65.9401 96.5179 35.8261 58.724 35.5021 58.3178C35.3211 58.0924 35.3501 57.7548 35.5691 57.5667C35.7881 57.3787 36.1111 57.4109 36.2921 57.6384C36.6171 58.0477 66.8951 96.0431 80.0611 114.362Z" fill="#009271"/>
<path d="M52.3401 79.2057C52.2571 79.2233 52.1691 79.2213 52.0831 79.1932C51.8121 79.107 51.6601 78.8078 51.7431 78.5263C51.7661 78.4484 54.0491 70.6789 53.9161 65.6468C53.9081 65.3518 54.1331 65.1066 54.4151 65.0993C54.6991 65.091 54.9351 65.3237 54.9431 65.6177C55.0801 70.8265 52.8211 78.5149 52.7241 78.84C52.6681 79.0333 52.5171 79.1672 52.3401 79.2057Z" fill="#009271"/>
<path d="M55.7601 84.0633C55.7501 84.0654 55.7401 84.0675 55.7301 84.0696C55.4161 84.1184 47.9671 85.259 42.3331 84.0644C42.0551 84.0052 41.8761 83.7236 41.9331 83.4349C41.9901 83.1461 42.2611 82.9601 42.5391 83.0193C47.9911 84.1766 55.5021 83.0266 55.5771 83.0151C55.8571 82.9715 56.1191 83.172 56.1611 83.4639C56.2011 83.7434 56.0241 84.0062 55.7601 84.0633Z" fill="#009271"/>
<path d="M70.375 102.562C70.249 102.59 70.113 102.568 69.995 102.491C69.755 102.334 69.683 102.005 69.834 101.756C69.881 101.679 74.528 93.953 74.389 88.8866C74.381 88.5926 74.605 88.3464 74.888 88.3381C75.172 88.3298 75.408 88.5614 75.416 88.8565C75.564 94.248 70.902 101.998 70.703 102.325C70.626 102.452 70.506 102.534 70.375 102.562Z" fill="#009271"/>
<path d="M65.562 108.913C62.688 109.546 59.446 109.976 56.583 109.669C56.301 109.638 56.096 109.377 56.125 109.083C56.154 108.79 56.4071 108.577 56.6891 108.607C63.5231 109.34 72.991 105.563 73.086 105.525C73.35 105.418 73.6481 105.555 73.7511 105.829C73.8541 106.103 73.723 106.413 73.458 106.519C73.221 106.615 69.792 107.983 65.562 108.913Z" fill="#009271"/>
<path d="M40.458 161.7C40.521 156.333 41.114 145.852 38.585 144.698C35.48 143.281 36.231 155.826 36.231 155.826C36.231 155.826 34.198 143.552 30.593 141.33C26.989 139.107 31.81 156.717 31.81 156.717C31.81 156.717 25.976 150.065 22.2 149.993C19.233 149.936 26.024 158.169 29.071 161.701H40.458V161.7Z" fill="#00C67D"/>
<path d="M237.425 161.701H35.56L57.004 105.607L136.492 37.269L215.984 105.607L237.425 161.701Z" fill="#56642A"/>
<path d="M231.049 161.701H229.74L210.081 110.271L136.492 47.0112L62.906 110.271L43.244 161.701H41.935L61.829 109.653C61.869 109.554 61.93 109.466 62.009 109.399L136.104 45.6991C136.33 45.5059 136.656 45.5059 136.882 45.6991L210.977 109.399C211.056 109.466 211.117 109.554 211.157 109.653L231.049 161.701Z" fill="#849531"/>
<path d="M175.195 161.701H97.793L106.015 132.762L136.494 90.7671L166.974 132.762L175.195 161.701Z" fill="#243845"/>
<path d="M136.491 90.7681L106.015 132.763L97.793 161.701H88.393L97.793 129.79L109.819 115.38C106.164 114.538 102.178 108.075 102.178 108.075C116.52 109.213 136.192 91.0444 136.491 90.7681Z" fill="#849531"/>
<path d="M136.494 90.7681L166.97 132.763L175.192 161.701H184.592L175.192 129.79L163.166 115.38C166.821 114.538 170.807 108.075 170.807 108.075C156.465 109.213 136.793 91.0444 136.494 90.7681Z" fill="#849531"/>
<path d="M112.405 100.315C104.336 100.328 97.826 99.4849 92.876 98.1054C92.876 98.1054 92.88 98.0971 92.872 98.0939C92.807 98.0721 91.668 97.6992 91.248 97.507C89.997 96.9242 88.391 95.8968 86.982 94.3209C86.813 94.1318 86.639 93.9116 86.464 93.6519C85.258 91.9596 83.894 88.894 82.65 85.7505L82.654 85.7422L85.503 73.699C85.503 73.699 85.865 73.1712 85.866 73.191C85.937 73.6834 87.716 80.3101 91.036 86.3946C91.744 87.7108 92.569 88.9958 93.513 90.1811C93.806 90.5561 94.121 90.9228 94.443 91.2729C96.158 91.6791 100.577 93.3008 102.509 93.9583C107.756 95.7244 112.443 96.2074 112.443 96.2074C111.954 97.8062 112.094 99.1608 112.405 100.315Z" fill="#E94F1C"/>
<path d="M110.699 97.0168C110.699 97.0168 110.903 95.4211 112.549 94.9412C114.196 94.4612 115.42 93.7309 116.025 93.547C116.631 93.3632 117.531 94.5765 115.004 95.3307C115.004 95.3307 118.554 95.7753 120.958 95.5582C123.362 95.3401 122.703 101.093 120.425 101.901C118.148 102.708 108.84 102.724 110.699 97.0168Z" fill="#FAB18D"/>
<path d="M49.792 89.0314C49.792 89.0314 48.542 88.7737 48.067 90.8275C47.592 92.8813 47.065 100.279 47.118 100.827C47.171 101.375 48.602 101.435 48.602 101.435C48.602 101.435 50.093 92.7971 49.792 89.0314Z" fill="#FFA000"/>
<path d="M48.895 102.08C48.895 102.08 47.595 101.895 47.12 103.497C46.645 105.099 46.415 110.759 46.696 111.074C47.589 112.077 48.562 111.721 48.562 111.721C48.562 111.721 49.24 105.001 48.895 102.08Z" fill="#FFA000"/>
<path d="M50.184 85.8379C50.184 85.8379 46.754 111.841 49.09 115.774C49.775 116.926 52.323 117.687 55.647 118.093C63.649 119.066 76.151 117.971 77.981 115.304C80.568 111.532 80.473 78.1298 80.473 78.1298C80.473 78.1298 82.228 72.4245 78.42 68.3544C75.265 64.9813 59.944 66.6392 53.462 71.2776C52.12 72.2375 51.157 73.3241 50.758 74.5209C48.43 81.4998 50.184 85.8379 50.184 85.8379Z" fill="#FFA000"/>
<path d="M50.184 85.8378C50.184 85.8378 46.754 111.841 49.09 115.774C49.775 116.926 52.323 117.686 55.647 118.093C59.808 111.815 56.368 86.8164 56.368 86.8164C56.368 86.8164 58.605 83.6635 58.497 77.4399C58.39 71.2141 53.462 71.2754 53.462 71.2754C52.12 72.2353 51.157 73.3219 50.758 74.5187C48.43 81.4996 50.184 85.8378 50.184 85.8378Z" fill="#FCC100"/>
<path d="M52.244 59.5169C52.244 59.5169 75.142 56.2363 84.004 58.2111C84.004 58.2111 88.042 63.4634 83.347 70.0933C83.347 70.0933 66.808 70.6085 53.326 73.028L52.244 59.5169Z" fill="#FCC100"/>
<path d="M48.882 62.066C50.628 58.1984 56.025 58.828 56.956 62.9895C57.366 64.822 57.338 67.1636 56.121 69.8947C53.047 76.7936 48.75 71.1485 48.289 65.7621C48.167 64.34 48.414 63.1017 48.882 62.066Z" fill="#FFA000"/>
<path d="M90.083 193.225V197.531C89.111 197.95 88.037 198.039 86.869 197.821L85.891 193.66C85.891 193.66 88.5 192.257 90.083 193.225Z" fill="#FAB18D"/>
<path d="M62.07 193.805L62.668 198.165L65.777 198.445L66.262 194.24C66.262 194.24 63.653 192.838 62.07 193.805Z" fill="#FAB18D"/>
<path d="M86.256 122.659L90.517 193.561L85.517 194.426L74.264 131.83C74.264 131.83 72.478 131.685 71.669 131.83L66.575 195.112L61.822 194.256C61.822 194.256 57.847 146.33 59.923 121.886L86.256 122.659Z" fill="#243845"/>
<path d="M86.603 203.287C86.651 203.637 86.694 203.984 86.73 204.328H102.38C102.38 203.973 102.334 203.623 102.247 203.287C101.987 202.29 101.361 201.42 100.481 200.883C98.089 199.425 94.558 198.745 94.558 198.745C93.542 197.754 90.517 196.092 90.517 196.092C88.009 197.148 86.598 196.669 86.598 196.669C85.945 198.975 86.323 201.18 86.603 203.287Z" fill="#FF7840"/>
<path d="M86.603 203.287C86.651 203.637 86.694 203.984 86.73 204.328H102.38C102.38 203.973 102.334 203.623 102.247 203.287H86.603Z" fill="#E94F1C"/>
<path d="M54.501 204.328H65.965C65.965 204.328 66.093 203.951 66.226 203.287C66.493 201.967 66.778 199.512 66.096 196.669C66.096 196.669 63.311 197.067 62.423 196.379C62.423 196.379 61.347 196.708 58.972 198.838C58.972 198.838 54.952 199.77 54.523 203.288C54.483 203.611 54.473 203.958 54.501 204.328Z" fill="#FF7840"/>
<path d="M54.501 204.328H65.965C65.965 204.328 66.093 203.951 66.226 203.287H54.523C54.483 203.611 54.473 203.958 54.501 204.328Z" fill="#E94F1C"/>
<path d="M58.947 143.669L60.311 143.719C60.814 143.738 61.211 144.169 61.206 144.692L61.125 154.641C61.12 155.212 60.642 155.654 60.095 155.591L58.546 155.415C58.065 155.36 57.706 154.931 57.719 154.429L57.985 144.606C58 144.071 58.432 143.65 58.947 143.669Z" fill="#171A25"/>
<path d="M58.833 142.864L60.652 142.96C61.036 142.981 61.368 142.684 61.407 142.287L61.7021 139.282C61.7451 138.841 61.413 138.457 60.985 138.455L58.945 138.449C58.552 138.448 58.231 138.772 58.22 139.18L58.1461 142.094C58.1361 142.503 58.441 142.843 58.833 142.864Z" fill="#171A25"/>
<path d="M87.483 143.625L86.121 143.729C85.619 143.767 85.238 144.213 85.261 144.735L85.702 154.674C85.727 155.244 86.222 155.668 86.766 155.584L88.308 155.346C88.786 155.272 89.13 154.83 89.099 154.328L88.478 144.522C88.444 143.989 87.997 143.585 87.483 143.625Z" fill="#171A25"/>
<path d="M87.568 142.817L85.754 142.983C85.371 143.018 85.028 142.736 84.975 142.34L84.571 139.349C84.512 138.91 84.831 138.513 85.257 138.495L87.295 138.409C87.687 138.392 88.02 138.704 88.045 139.111L88.225 142.021C88.25 142.428 87.959 142.781 87.568 142.817Z" fill="#171A25"/>
<path d="M61.526 102.082L59.923 121.885C61.758 123.176 65.253 123.75 69.114 123.94C72.265 124.094 75.66 123.992 78.593 123.817C82.952 123.553 86.29 123.124 86.29 123.124C85.756 116.068 85.973 108.963 85.58 102.923C86.622 90.7526 85.865 73.19 85.865 73.19C83.887 71.5663 77.939 70.8724 76.855 70.8174C76.763 70.8122 76.712 70.8101 76.712 70.8101C71.667 71.9091 68.523 70.8101 68.523 70.8101L67.551 71.1654L59.713 74.0273L61.526 102.082Z" fill="#FF7840"/>
<path d="M83.002 55.3116C83.002 55.3116 85.078 55.4758 85.227 53.2838C85.376 51.0919 84.115 50.5985 84.115 50.5985C84.115 50.5985 85.736 49.1742 85.24 47.1464C84.744 45.1186 82.687 45.0095 82.687 45.0095C82.687 45.0095 83.109 42.2151 81.738 41.1191C80.367 40.0231 78.337 40.8449 77.611 42.16C77.611 42.16 77.065 38.8721 73.731 38.9822C70.397 39.0913 70.345 42.106 70.345 42.106C70.345 42.106 69.494 39.6398 66.596 40.7358C63.699 41.8317 64.701 44.7903 64.701 44.7903C64.701 44.7903 63.224 44.5711 62.327 47.1464C61.43 49.7217 62.994 50.4343 62.994 50.4343C62.994 50.4343 62.116 51.2561 62.275 52.297C62.433 53.3379 62.994 53.448 62.994 53.448C62.994 53.448 62.275 54.2759 62.591 55.3137C62.907 56.3526 63.804 56.5447 63.804 56.5447C63.804 56.5447 63.277 58.4895 63.804 59.2011C64.332 59.9137 65.222 59.975 65.222 59.975C65.222 59.975 65.097 62.2147 67.316 62.2511C69.535 62.2895 83.002 55.3116 83.002 55.3116Z" fill="#243845"/>
<path d="M68.831 70.7859C71.295 72.0564 73.76 72.0543 76.225 70.7859C75.967 68.4433 76.265 66.6389 76.765 65.0318C76.201 64.3545 75.042 63.0923 73.633 62.2643C73.015 62.0015 72.361 61.7428 71.709 61.5195C70.608 61.3304 69.455 61.5787 68.377 62.6259C68.627 63.6408 68.826 64.6059 68.936 65.6779C69.08 67.0835 69.073 68.6698 68.831 70.7859Z" fill="#FAB18D"/>
<path d="M68.3781 62.6259C68.6281 63.6408 68.827 64.6059 68.937 65.6779C70.1 67.6559 72.32 70.199 76.226 70.7859C75.968 68.4434 76.2661 66.6389 76.7661 65.0318C76.2021 64.3545 75.043 63.0923 73.634 62.2644C73.016 62.0015 72.3621 61.7429 71.7101 61.5195C70.6091 61.3294 69.4561 61.5777 68.3781 62.6259Z" fill="#FA8A66"/>
<path d="M81.433 54.8713C81.433 54.8713 83.151 53.2268 84.147 54.6957C85.143 56.1646 83.99 61.5458 80.894 61.0388C80.894 61.0388 80.478 57.8818 81.433 54.8713Z" fill="#FA8A66"/>
<path d="M66.38 51.1368L66.378 51.1578C66.378 51.1578 66.381 51.1498 66.388 51.1348C66.382 51.1358 66.38 51.1368 66.38 51.1368Z" fill="#FAB18D"/>
<path d="M66.965 58.9892C67.027 59.2385 67.093 59.4858 67.164 59.7289C67.183 59.7943 67.203 59.8598 67.222 59.9252C67.296 60.1673 67.373 60.4083 67.454 60.6441C69.097 65.4082 72.421 68.6857 77.083 67.4225C83.174 65.7718 83.292 53.7275 83.292 52.83C83.303 52.8279 83.303 52.7396 83.298 52.617C83.264 51.8888 83.1 51.173 82.806 50.5103C82.008 48.7079 80.001 45.6953 75.428 45.4168C69.103 45.0314 67.011 47.9111 66.484 49.9877C66.479 50.0054 66.379 51.1606 66.379 51.1606C66.142 53.8065 66.352 56.5324 66.965 58.9892Z" fill="#FAB18D"/>
<path d="M67.84 53.7318C67.84 53.7318 65.511 52.2848 64.62 53.8243C63.729 55.3639 65.254 60.6442 68.306 59.9056C68.306 59.9056 69.002 56.6624 67.84 53.7318Z" fill="#FAB18D"/>
<path d="M67.222 59.9243C67.296 60.1663 67.373 60.4074 67.454 60.6432C67.887 60.6546 68.481 60.4894 68.91 59.6636C68.91 59.6636 67.901 60.1726 67.222 59.9243Z" fill="#FA8A66"/>
<path d="M83.205 54.9146C83.205 54.9146 82.662 54.1167 82.65 52.1336C82.65 52.1336 80.865 51.6589 79.423 49.5033C79.423 49.5033 78.86 50.8912 77.77 50.7821C76.68 50.673 76.223 49.978 76.223 49.978C76.223 49.978 75.731 51.8043 74.289 51.5124C72.847 51.2205 72.32 50.4164 72.32 50.4164C72.32 50.4164 72.039 52.0276 70.456 52.2084C70.456 52.2084 71.265 53.8217 70.456 54.9135V56.8821C70.456 56.8821 69.577 57.1377 69.155 56.0781C68.733 55.0184 67.542 52.8587 66.283 53.1143C66.283 53.1143 65.357 52.3892 65.568 50.4164C65.779 48.4437 68.1 43.3295 74.324 44.279C80.548 45.2285 84.275 47.2012 83.22 54.7629" fill="#243845"/>
<path d="M80.876 71.3874C84.459 76.3531 81.955 88.0784 85.799 108.345C85.799 108.345 88.992 106.687 88.362 98.5831C87.732 90.4802 85.566 72.9239 85.566 72.9239C85.566 72.9239 83.668 69.5653 80.876 71.3874Z" fill="#FFA000"/>
<path d="M65.985 71.7385C65.985 71.7385 72.218 103.176 60.616 107.451C60.616 107.451 59.937 105.135 61.355 99.4412C61.355 99.4412 65.321 88.9624 62.454 73.0288C62.454 73.0288 63.418 71.3365 65.985 71.7385Z" fill="#FFA000"/>
<path d="M31.55 101.783C39.619 101.798 46.129 100.953 51.079 99.5735C51.079 99.5735 51.075 99.5651 51.083 99.562C51.148 99.5402 52.287 99.1673 52.707 98.9751C53.958 98.3923 55.565 97.3649 56.973 95.789C57.142 95.5999 57.316 95.3797 57.491 95.12C58.697 93.4277 60.061 91.7625 61.304 88.6179L61.3 87.2103L59.815 75.6398C59.815 75.6398 59.711 74.0088 59.711 74.0285C59.64 74.5209 56.239 81.7793 52.919 87.8637C52.211 89.1799 51.386 90.4639 50.442 91.6503C50.15 92.0253 49.834 92.392 49.512 92.7421C47.797 93.1483 43.378 94.7699 41.447 95.4275C36.2 97.1935 31.513 97.6765 31.513 97.6765C32.001 99.2743 31.861 100.63 31.55 101.783Z" fill="#E94F1C"/>
<path d="M33.257 98.486C33.257 98.486 33.053 96.8903 31.406 96.4104C29.759 95.9305 28.535 95.2001 27.93 95.0163C27.325 94.8324 26.424 96.0458 28.951 96.8C28.951 96.8 25.401 97.2446 22.997 97.0275C20.593 96.8093 21.252 102.562 23.53 103.371C25.808 104.177 35.115 104.193 33.257 98.486Z" fill="#FAB18D"/>
<path opacity="0.1" d="M47.783 204.329C47.783 206.914 61.214 209.011 77.782 209.011C94.35 209.011 107.781 206.914 107.781 204.329C107.781 201.743 94.35 199.646 77.782 199.646C61.214 199.646 47.783 201.743 47.783 204.329Z" fill="#243845"/>
<path d="M189.297 84.0693C189.297 84.0693 178.992 93.2329 173.959 95.003C173.959 95.003 169.217 90.5475 167.553 81.9179C166.137 74.5775 166.152 71.57 166.152 71.57L170.011 71.0371C170.011 71.0371 170.544 76.7414 171.825 79.9804C172.835 82.5349 175.896 85.7273 175.896 85.7273L189.042 73.1917L189.297 84.0693Z" fill="#FFA000"/>
<path d="M169.29 72.1945C169.29 72.1945 170.753 71.1276 171.544 70.0171C172.335 68.9056 172.426 67.5623 172.716 66.2659C172.905 65.4203 172.285 65.1242 171.588 65.9698C171.328 66.2856 171.152 66.6648 171.039 67.0637C170.927 67.4564 170.715 68.0039 170.418 67.9021C169.963 67.7462 171.486 62.9738 170.932 61.6898C170.379 60.4058 166.93 62.6559 166.461 64.9341C165.992 67.2122 166.151 71.5691 166.151 71.5691C166.151 71.5691 167.358 73.0952 169.29 72.1945Z" fill="#FAB18D"/>
<path d="M224.257 88.1608C224.257 88.1608 225.507 87.9031 225.982 89.9569C226.457 92.0107 226.984 99.4082 226.931 99.9567C226.878 100.504 225.447 100.564 225.447 100.564C225.447 100.564 223.956 91.9255 224.257 88.1608Z" fill="#E94F1C"/>
<path d="M225.154 101.209C225.154 101.209 226.455 101.024 226.93 102.626C227.405 104.228 227.635 109.887 227.354 110.203C226.461 111.205 225.488 110.849 225.488 110.849C225.488 110.849 224.809 104.13 225.154 101.209Z" fill="#E94F1C"/>
<path d="M223.865 84.9673C223.865 84.9673 227.295 110.97 224.959 114.903C224.274 116.056 221.726 116.816 218.402 117.222C210.4 118.196 197.898 117.101 196.069 114.434C193.482 110.662 193.577 77.2592 193.577 77.2592C193.577 77.2592 191.822 71.5539 195.63 67.4837C198.785 64.1117 214.106 65.7686 220.588 70.4081C221.93 71.3679 222.893 72.4546 223.292 73.6513C225.618 80.6292 223.865 84.9673 223.865 84.9673Z" fill="#E94F1C"/>
<path d="M223.865 84.9671C223.865 84.9671 227.295 110.97 224.959 114.903C224.274 116.055 221.726 116.816 218.402 117.222C214.241 110.944 217.681 85.9457 217.681 85.9457C217.681 85.9457 215.444 82.7939 215.552 76.5692C215.659 70.3435 220.587 70.4058 220.587 70.4058C221.929 71.3657 222.892 72.4523 223.291 73.649C225.618 80.629 223.865 84.9671 223.865 84.9671Z" fill="#FF7840"/>
<path d="M221.804 58.6463C221.804 58.6463 198.906 55.3656 190.044 57.3405C190.044 57.3405 186.006 62.5928 190.701 69.2227C190.701 69.2227 207.24 69.738 220.722 72.1564L221.804 58.6463Z" fill="#FF7840"/>
<path d="M225.167 61.1944C223.421 57.3268 218.024 57.9564 217.093 62.1179C216.683 63.9504 216.711 66.292 217.928 69.0231C221.002 75.922 225.299 70.2769 225.76 64.8906C225.882 63.4684 225.634 62.2301 225.167 61.1944Z" fill="#E94F1C"/>
<path d="M188.652 122.659L184.391 193.561L189.391 194.426L200.644 131.83C200.644 131.83 202.43 131.685 203.239 131.83L208.333 195.112L213.086 194.256C213.086 194.256 217.061 146.33 214.985 121.886L188.652 122.659Z" fill="#243845"/>
<path d="M188.305 203.287C188.258 203.637 188.214 203.984 188.178 204.328H172.528C172.528 203.973 172.574 203.623 172.661 203.287C172.921 202.29 173.547 201.421 174.427 200.883C176.819 199.425 180.35 198.746 180.35 198.746C181.366 197.755 184.786 186.992 184.786 186.992C187.055 187.674 190.592 187.745 190.592 187.745C189.2 196.076 188.585 201.181 188.305 203.287Z" fill="#56642A"/>
<path d="M186.192 190.32C186.155 190.32 186.118 190.313 186.082 190.299C184.658 189.749 183.27 189.97 183.256 189.972C183.084 190 182.921 189.878 182.894 189.698C182.866 189.52 182.983 189.35 183.156 189.322C183.219 189.312 184.717 189.07 186.303 189.682C186.467 189.745 186.55 189.934 186.489 190.105C186.441 190.239 186.321 190.32 186.192 190.32Z" fill="#849531"/>
<path d="M185.446 192.383C185.409 192.383 185.372 192.376 185.336 192.362C183.905 191.809 182.524 192.033 182.511 192.035C182.339 192.065 182.176 191.942 182.148 191.763C182.12 191.583 182.237 191.415 182.41 191.385C182.473 191.375 183.971 191.133 185.557 191.745C185.721 191.808 185.804 191.997 185.743 192.168C185.695 192.301 185.574 192.383 185.446 192.383Z" fill="#849531"/>
<path d="M184.699 194.446C184.662 194.446 184.625 194.44 184.589 194.425C183.165 193.876 181.777 194.096 181.763 194.098C181.59 194.127 181.428 194.005 181.401 193.825C181.373 193.646 181.49 193.477 181.663 193.449C181.726 193.439 183.224 193.196 184.81 193.808C184.974 193.872 185.057 194.061 184.996 194.231C184.948 194.364 184.828 194.446 184.699 194.446Z" fill="#849531"/>
<path d="M183.952 196.509C183.915 196.509 183.878 196.503 183.842 196.488C182.411 195.937 181.03 196.159 181.016 196.161C180.844 196.192 180.681 196.069 180.653 195.889C180.625 195.71 180.742 195.541 180.915 195.512C180.978 195.501 182.476 195.259 184.062 195.871C184.226 195.935 184.309 196.124 184.248 196.294C184.202 196.427 184.081 196.509 183.952 196.509Z" fill="#849531"/>
<path d="M183.206 198.572C183.169 198.572 183.132 198.566 183.096 198.551C181.672 198.002 180.284 198.222 180.27 198.224C180.097 198.252 179.935 198.131 179.908 197.951C179.88 197.772 179.997 197.603 180.17 197.575C180.233 197.564 181.731 197.322 183.317 197.934C183.481 197.998 183.564 198.187 183.503 198.357C183.455 198.49 183.334 198.572 183.206 198.572Z" fill="#849531"/>
<path d="M188.305 203.287C188.258 203.637 188.214 203.984 188.178 204.328H172.528C172.528 203.973 172.574 203.623 172.661 203.287H188.305Z" fill="#849531"/>
<path d="M220.407 204.328H208.943C208.943 204.328 208.814 203.951 208.682 203.287C208.415 201.967 208.048 194.103 207.679 186.992C207.679 186.992 212.056 187.29 213.598 187.468C213.598 187.468 213.561 196.708 215.936 198.838C215.936 198.838 219.956 199.77 220.385 203.288C220.425 203.611 220.435 203.958 220.407 204.328Z" fill="#56642A"/>
<path d="M210.889 189.782C210.925 189.785 210.963 189.782 211.001 189.771C212.464 189.346 213.83 189.686 213.843 189.689C214.013 189.731 214.184 189.624 214.226 189.449C214.268 189.272 214.165 189.095 213.995 189.051C213.933 189.035 212.46 188.665 210.83 189.137C210.662 189.186 210.563 189.368 210.61 189.542C210.647 189.679 210.76 189.771 210.889 189.782Z" fill="#849531"/>
<path d="M211.467 191.902C211.504 191.905 211.541 191.902 211.579 191.892C213.05 191.465 214.407 191.807 214.421 191.81C214.59 191.856 214.762 191.747 214.805 191.57C214.847 191.393 214.744 191.216 214.574 191.172C214.512 191.156 213.039 190.786 211.409 191.258C211.241 191.307 211.142 191.489 211.189 191.663C211.225 191.798 211.339 191.891 211.467 191.902Z" fill="#849531"/>
<path d="M211.941 194.023C211.977 194.026 212.015 194.023 212.053 194.013C213.517 193.588 214.882 193.927 214.895 193.931C215.065 193.974 215.236 193.866 215.278 193.691C215.32 193.514 215.217 193.336 215.047 193.293C214.985 193.277 213.512 192.906 211.882 193.379C211.714 193.428 211.615 193.61 211.662 193.784C211.699 193.92 211.813 194.012 211.941 194.023Z" fill="#849531"/>
<path d="M212.326 196.143C212.363 196.146 212.4 196.143 212.438 196.132C213.908 195.705 215.266 196.047 215.28 196.05C215.449 196.095 215.621 195.986 215.664 195.81C215.706 195.634 215.603 195.455 215.433 195.412C215.371 195.396 213.898 195.025 212.268 195.498C212.1 195.547 212.001 195.729 212.048 195.903C212.084 196.04 212.198 196.132 212.326 196.143Z" fill="#849531"/>
<path d="M212.817 198.263C212.854 198.266 212.891 198.263 212.929 198.252C214.393 197.827 215.758 198.167 215.771 198.17C215.941 198.212 216.112 198.105 216.154 197.93C216.196 197.754 216.093 197.576 215.923 197.532C215.861 197.516 214.388 197.145 212.758 197.618C212.59 197.667 212.491 197.849 212.538 198.023C212.575 198.16 212.689 198.252 212.817 198.263Z" fill="#849531"/>
<path d="M220.407 204.328H208.943C208.943 204.328 208.814 203.951 208.682 203.287H220.385C220.425 203.611 220.435 203.958 220.407 204.328Z" fill="#849531"/>
<path d="M192.092 49.6572C191.844 49.9907 191.589 50.4457 191.534 51.5479C191.407 54.0723 193.422 54.8161 193.422 54.8161C193.422 54.8161 193.715 52.8953 193.858 50.747L192.092 49.6572Z" fill="#243845"/>
<path d="M192.651 51.6902C192.651 51.6902 189.944 47.3541 194.175 44.9139C198.926 42.1745 202.215 42.8331 205.885 44.114C211.463 46.0618 211.026 49.9626 211.325 52.9908C211.493 54.6893 208.816 65.3436 204.935 64.6071C204.935 64.6071 201.126 50.0457 192.651 51.6902Z" fill="#243845"/>
<path d="M205.925 71.2308C203.407 72.3808 200.945 72.2613 198.539 70.8755C198.901 68.5486 198.684 66.7316 198.255 65.1006C198.849 64.4514 200.063 63.2463 201.507 62.4869C202.135 62.2542 202.801 62.0267 203.462 61.8356C204.571 61.6995 205.711 62.0028 206.741 63.1009C206.446 64.1023 206.205 65.057 206.047 66.1229C205.841 67.5201 205.777 69.1053 205.925 71.2308Z" fill="#FAB18D"/>
<path d="M206.742 63.1009C206.447 64.1023 206.206 65.057 206.048 66.1229C204.799 68.0426 202.467 70.4766 198.539 70.8755C198.901 68.5486 198.684 66.7316 198.255 65.1006C198.849 64.4514 200.063 63.2463 201.507 62.4869C202.135 62.2542 202.801 62.0267 203.462 61.8356C204.571 61.6995 205.711 62.0028 206.742 63.1009Z" fill="#FA8A66"/>
<path d="M194.046 54.7265C194.046 54.7265 192.403 53.002 191.343 54.421C190.283 55.8401 191.195 61.2711 194.31 60.9138C194.31 60.9138 194.865 57.7796 194.046 54.7265Z" fill="#FA8A66"/>
<path d="M209.249 51.7202L209.25 51.7422C209.25 51.7422 209.247 51.7342 209.241 51.7192C209.247 51.7192 209.249 51.7202 209.249 51.7202Z" fill="#FAB18D"/>
<path d="M208.315 59.5354C208.242 59.7816 208.165 60.0257 208.083 60.2647C208.061 60.3301 208.039 60.3935 208.017 60.4579C207.933 60.6968 207.845 60.9326 207.753 61.1653C205.9 65.8463 202.433 68.9597 197.833 67.4742C191.822 65.5326 192.241 53.4956 192.281 52.5981C192.27 52.5949 192.274 52.5067 192.285 52.3851C192.351 51.659 192.547 50.9515 192.87 50.3043C193.747 48.5425 195.887 45.6296 200.467 45.5714C206.802 45.4914 208.764 48.4677 209.198 50.5672C209.202 50.5848 209.251 51.7431 209.251 51.7431C209.368 54.3984 209.037 57.1108 208.315 59.5354Z" fill="#FAB18D"/>
<path d="M207.676 54.2426C207.676 54.2426 210.067 52.9088 210.888 54.4899C211.71 56.071 209.951 61.2724 206.935 60.3874C206.935 60.3874 206.384 57.114 207.676 54.2426Z" fill="#FAB18D"/>
<path d="M208.016 60.4579C207.932 60.6969 207.844 60.9327 207.752 61.1654C207.319 61.156 206.733 60.9618 206.341 60.1172C206.341 60.1172 207.327 60.673 208.016 60.4579Z" fill="#FA8A66"/>
<path d="M192.706 50.0365C192.706 50.0365 194.425 52.2659 200.294 50.4334C203.306 49.4922 205.665 49.3426 205.938 50.1414C206.891 52.9359 205.331 53.5114 205.052 56.7079L206.891 56.7495C206.891 56.7495 206.876 54.3092 209.258 53.7005C209.258 53.7005 210.202 48.8232 208.867 47.1683C207.532 45.5134 194.43 39.8819 192.706 50.0365Z" fill="#243845"/>
<path d="M205.544 55.0737C205.544 55.0737 203.108 64.8626 198.255 64.6435C193.402 64.4243 193.131 61.1654 193.131 61.1654C193.131 61.1654 192.967 64.443 194.386 66.5248C196.233 69.2372 200.557 69.9405 202.737 68.2597C204.917 66.5799 206.752 59.4856 206.889 56.7493L205.544 55.0737Z" fill="#243845"/>
<path d="M192.28 52.5972C192.28 52.5972 192.62 60.0705 193.965 62.1191C195.31 64.1687 196.309 64.3443 196.309 64.3443L193.266 63.3397C193.266 63.3397 191.792 56.6891 191.884 53.3597L192.28 52.5972Z" fill="#243845"/>
<path d="M193.516 61.5935C193.516 61.5935 194.36 59.4297 196.971 59.2645C199.582 59.1003 202.303 61.3193 202.499 62.4423L201.566 63.3741C201.566 63.3741 199.108 62.9357 197.473 60.4872C197.473 60.4872 195.177 62.8827 193.859 62.8007L193.516 61.5935Z" fill="#243845"/>
<path d="M213.382 102.082L214.985 121.885C213.15 123.176 209.655 123.75 205.794 123.94C202.643 124.094 199.248 123.992 196.316 123.817C191.957 123.553 188.619 123.124 188.619 123.124C189.153 116.068 188.936 108.963 189.329 102.923C188.287 90.7526 189.044 73.19 189.044 73.19C191.022 71.5663 196.97 70.8724 198.054 70.8174C198.146 70.8122 198.197 70.8101 198.197 70.8101C203.242 71.9091 206.386 70.8101 206.386 70.8101L207.358 71.1654L215.196 74.0273L213.382 102.082Z" fill="#FCC100"/>
<path d="M196.309 70.8113C196.309 70.8113 189.343 97.7119 189.135 107.345C189.135 107.345 185.895 105.453 187.055 97.4138C188.215 89.3742 191.528 72.0122 191.528 72.0122C191.528 72.0122 193.642 68.796 196.309 70.8113Z" fill="#E94F1C"/>
<path d="M208.016 71.4077C208.016 71.4077 202.143 102.306 213.745 106.58C213.745 106.58 214.998 104.709 213.579 99.0138C213.579 99.0138 208.852 88.694 211.719 72.7603C211.719 72.7603 210.583 71.0068 208.016 71.4077Z" fill="#E94F1C"/>
<path d="M198.196 70.8113C198.224 70.2991 198.387 69.8524 198.694 69.4743C198.694 69.4743 203.793 70.1215 205.806 68.4697C205.806 68.4697 206.515 68.96 206.385 70.8102C206.385 70.8102 205.305 73.0998 200.98 72.7155C198.194 72.4692 198.196 70.8113 198.196 70.8113Z" fill="#FFA000"/>
<path d="M215.126 74.1455C215.126 74.1455 223.241 94.5077 223.952 102.106L219.129 104.258C219.129 104.258 215.126 98.4761 212.821 89.5327C212.821 89.5327 211.092 78.7091 215.126 74.1455Z" fill="#FFA000"/>
<path d="M218.879 103.262C218.879 103.262 220.661 115.134 216.424 121.331C216.405 124.335 217.191 125.618 218.39 126.86C223.049 120.539 226.935 112.03 223.763 101.202L218.879 103.262Z" fill="#FFA000"/>
<path d="M216.424 121.331C216.424 121.331 213.974 123.731 213.13 124.266C212.997 125.033 213.007 125.414 213.411 125.983C213.411 125.983 212.452 127.573 213.785 131.534C213.785 131.534 217.261 129.71 218.389 126.86C218.389 126.86 216.392 125.243 216.424 121.331Z" fill="#FAB18D"/>
<path opacity="0.1" d="M166.309 204.329C166.309 206.914 179.74 209.011 196.308 209.011C212.876 209.011 226.307 206.914 226.307 204.329C226.307 201.743 212.876 199.646 196.308 199.646C179.741 199.646 166.309 201.743 166.309 204.329Z" fill="#243845"/>
</g>
<defs>
<clipPath id="clip0_194_1071">
<rect width="270" height="214" fill="white"/>
</clipPath>
</defs>
</svg>
